<svg width="59" height="60" viewBox="0 0 59 60" fill="none" xmlns="http://www.w3.org/2000/svg">
<g clip-path="url(#clip0_15_152)">
<path d="M57.744 30.152C57.744 45.8988 44.9787 58.664 29.232 58.664C13.4853 58.664 0.72 45.8988 0.72 30.152C0.72 14.4053 13.4853 1.64001 29.232 1.64001C44.9787 1.64001 57.744 14.4053 57.744 30.152Z" fill="#5C59ED" stroke="#3B0F46" stroke-width="1.44"/>
<path d="M44.6227 47.8395C45.1584 48.8345 43.9128 49.8295 43.0618 49.0851M44.6227 47.8395L40.6167 40.4148M44.6227 47.8395L43.9891 48.1814L43.989 48.1811M44.6227 47.8395L43.9888 48.1808L43.989 48.1811M43.0618 49.0851L50.3284 39.9924L50.7514 39.4097M43.0618 49.0851L36.7085 43.5296M43.0618 49.0851L35.414 52.7542M40.6167 40.4148C40.5191 40.2401 40.4757 40.0403 40.4921 39.8408C40.5085 39.6414 40.584 39.4513 40.7088 39.2949C40.8336 39.1384 41.0021 39.0227 41.1929 38.9624C41.3837 38.902 41.5882 38.8998 41.7802 38.9561M40.6167 40.4148L39.983 40.7567L39.9852 40.7607C39.9861 40.7624 39.9871 40.7641 39.988 40.7658L40.6167 40.4148ZM41.7802 38.9561L49.8874 41.2083C50.9731 41.5121 51.6658 40.0736 50.7514 39.4097M41.7802 38.9561L41.9826 38.2652C41.9808 38.2646 41.9789 38.2641 41.9771 38.2635L41.9729 38.2624L41.7802 38.9561ZM50.7514 39.4097L50.3289 39.9927L50.7514 39.4097ZM43.989 48.1811C44.0389 48.2742 44.0369 48.3398 44.0255 48.3859C44.0119 48.4411 43.9749 48.5025 43.9131 48.5519C43.8512 48.6013 43.7834 48.6235 43.727 48.6246C43.68 48.6254 43.6157 48.613 43.5358 48.5432L43.5357 48.5431L37.1859 42.9905M43.989 48.1811L5.93892 30.4414M37.1859 42.9905C36.9317 42.7633 36.6159 42.6162 36.2782 42.5681C35.9386 42.5196 35.5923 42.5733 35.2833 42.7224C34.9743 42.8715 34.7167 43.1091 34.5433 43.405C34.3709 43.6992 34.2894 44.0377 34.309 44.378M37.1859 42.9905C37.1873 42.9918 37.1887 42.9931 37.1902 42.9944L36.7085 43.5296M37.1859 42.9905L37.1824 42.9875L36.7085 43.5296M34.309 44.378L34.6947 52.7872L34.6947 52.7872C34.6996 52.8926 34.6694 52.9504 34.6393 52.9867C34.6032 53.0302 34.5433 53.0695 34.4659 53.0872C34.3885 53.1048 34.3174 53.0953 34.266 53.0717C34.2231 53.052 34.1709 53.0129 34.1297 52.916L34.1296 52.9158L30.8346 45.1735M34.309 44.378L34.3088 44.3733L35.028 44.3403M34.309 44.378C34.3091 44.3801 34.3092 44.3822 34.3094 44.3842L35.028 44.3403M30.8346 45.1735C30.706 44.8563 30.486 44.5844 30.2024 44.3924C29.9164 44.1987 29.5788 44.0952 29.2334 44.0952C28.888 44.0952 28.5505 44.1987 28.2645 44.3924C27.9811 44.5844 27.761 44.8562 27.6322 45.1735M30.8346 45.1735C30.8358 45.1763 30.8369 45.179 30.838 45.1818L30.1694 45.4491M30.8346 45.1735L30.8319 45.1671L30.1694 45.4491M27.6322 45.1735L24.3373 52.9158L24.3373 52.916C24.296 53.0129 24.2438 53.052 24.201 53.0717C24.1496 53.0953 24.0785 53.1048 24.001 53.0872C23.9236 53.0695 23.8637 53.0302 23.8276 52.9867C23.7976 52.9504 23.7674 52.8926 23.7722 52.7872L23.7722 52.7872L24.1579 44.378M27.6322 45.1735L27.6349 45.1671L28.2974 45.4491M27.6322 45.1735C27.6311 45.1763 27.63 45.1791 27.6289 45.1818L28.2974 45.4491M24.1579 44.378C24.1775 44.0377 24.096 43.6992 23.9236 43.405C23.7502 43.1091 23.4926 42.8715 23.1836 42.7224C22.8747 42.5733 22.5283 42.5196 22.1888 42.5681C21.8511 42.6162 21.5353 42.7633 21.2811 42.9905M24.1579 44.378C24.1578 44.3801 24.1577 44.3822 24.1576 44.3842L23.4389 44.3403M24.1579 44.378L24.1582 44.3733L23.4389 44.3403M21.2811 42.9905L14.9345 48.5427M21.2811 42.9905L21.2844 42.9877L21.7584 43.5296M21.2811 42.9905C21.2796 42.9918 21.2782 42.9931 21.2768 42.9944L21.7584 43.5296M14.9345 48.5427C14.8548 48.6123 14.7904 48.6248 14.743 48.624C14.6864 48.6229 14.6184 48.6006 14.5566 48.5512C14.4948 48.5019 14.4579 48.4406 14.4443 48.3856C14.4329 48.3397 14.4308 48.2742 14.4809 48.1811L14.4807 48.1814L13.8471 47.8395M14.9345 48.5427L15.408 49.0851M14.9345 48.5427L14.934 48.5432L15.408 49.0851M13.8471 47.8395L14.4811 48.1808L18.4846 40.7607M13.8471 47.8395L17.8531 40.4148M13.8471 47.8395C13.3114 48.8345 14.557 49.8281 15.408 49.0851M18.4846 40.7607C18.6498 40.4625 18.7232 40.1219 18.6952 39.7818C18.6671 39.4398 18.5378 39.114 18.3239 38.8459C18.11 38.5778 17.8211 38.3793 17.494 38.2759C17.1687 38.173 16.8204 38.1688 16.4928 38.2635M18.4846 40.7607C18.4837 40.7624 18.4827 40.7641 18.4818 40.7658L17.8531 40.4148M18.4846 40.7607L18.4868 40.7567L17.8531 40.4148M16.4928 38.2635L8.38973 40.5145C8.28804 40.5428 8.22495 40.5262 8.18302 40.5051C8.13269 40.4798 8.08128 40.4303 8.04705 40.3592C8.01283 40.2881 8.00627 40.217 8.01792 40.1617C8.02763 40.1156 8.05426 40.0555 8.14057 39.993L8.14092 39.9927L14.9514 35.0575M16.4928 38.2635L16.4969 38.2624L16.6896 38.9561M16.4928 38.2635C16.4909 38.2641 16.489 38.2646 16.4872 38.2652L16.6896 38.9561M14.9514 35.0575C15.2296 34.8605 15.4433 34.5855 15.5655 34.2672C15.6884 33.9472 15.7135 33.5978 15.6372 33.2634C15.561 32.9291 15.387 32.6251 15.1375 32.3899C14.8894 32.1561 14.5777 32.001 14.2417 31.944M14.9514 35.0575C14.9499 35.0586 14.9484 35.0597 14.9468 35.0608L14.5325 34.472M14.9514 35.0575L14.955 35.055L14.5325 34.472M14.2417 31.944L5.93892 30.4414M14.2417 31.944L14.246 31.9447L14.1178 32.6532M14.2417 31.944C14.2398 31.9436 14.2378 31.9433 14.2359 31.943L14.1178 32.6532M5.93892 30.4414L5.81044 31.1499M5.93892 30.4414L14.9352 33.4235M14.1178 32.6532C14.3151 32.686 14.4982 32.7768 14.6437 32.9139C14.7893 33.0511 14.8908 33.2285 14.9352 33.4235M14.1178 32.6532L5.81044 31.1499M14.9352 33.4235C14.9797 33.6185 14.9651 33.8223 14.8934 34.009C14.8217 34.1957 14.6961 34.3569 14.5325 34.472M14.9352 33.4235L7.71844 39.4097M5.81044 31.1499C4.69876 30.9483 4.69876 29.3556 5.81044 29.154L5.93866 29.8625C5.83462 29.8814 5.78474 29.9239 5.75601 29.9613C5.72155 30.0061 5.69668 30.073 5.69668 30.152C5.69668 30.2309 5.72155 30.2978 5.75601 30.3426C5.78474 30.38 5.83462 30.4225 5.93866 30.4414L5.81044 31.1499ZM14.2416 28.36L5.93892 29.8625L14.2416 28.36ZM14.2416 28.36C14.5776 28.3029 14.8894 28.1478 15.1375 27.914C15.387 27.6789 15.561 27.3748 15.6372 27.0405C15.7135 26.7061 15.6884 26.3567 15.5655 26.0367C15.4433 25.7185 15.2296 25.4435 14.9515 25.2464L8.14144 20.3115C8.1413 20.3114 8.14117 20.3113 8.14104 20.3113C8.05602 20.2494 8.02949 20.1896 8.01978 20.1431C8.00812 20.0873 8.01483 20.0157 8.04926 19.9441C8.0837 19.8724 8.13518 19.8231 8.18493 19.798C8.22613 19.7773 8.28805 19.7609 8.38841 19.789L8.38973 19.7894L16.4928 22.0404C16.8204 22.1352 17.1687 22.1309 17.494 22.028C17.8211 21.9246 18.11 21.7261 18.3239 21.458C18.5378 21.1899 18.6671 20.8641 18.6952 20.5221C18.7232 20.182 18.6498 19.8415 18.4847 19.5432L14.4811 12.1231C14.481 12.123 14.4809 12.1228 14.4808 12.1227C14.4309 12.0297 14.4329 11.9641 14.4443 11.918C14.458 11.8628 14.4949 11.8014 14.5568 11.752C14.6186 11.7026 14.6864 11.6804 14.7428 11.6793C14.7899 11.6785 14.8542 11.6909 14.934 11.7607L14.9341 11.7608L21.284 17.3134C21.5382 17.5406 21.8539 17.6877 22.1916 17.7358C22.5312 17.7843 22.8775 17.7306 23.1865 17.5815C23.4955 17.4324 23.7531 17.1948 23.9265 16.8989C24.0989 16.6047 24.1804 16.2662 24.1608 15.9259L23.7737 7.51093C23.7737 7.51091 23.7737 7.51089 23.7737 7.51087C23.7689 7.40552 23.7991 7.34771 23.8291 7.31146C23.8652 7.26792 23.9251 7.22862 24.0025 7.21099C24.0799 7.19336 24.151 7.20283 24.2024 7.22648C24.2453 7.24618 24.2975 7.28522 24.3387 7.38218L24.3388 7.38238L27.6337 15.1247C27.7624 15.4418 27.9824 15.7137 28.2659 15.9057C28.5519 16.0994 28.8895 16.203 29.2349 16.203C29.5803 16.203 29.9179 16.0994 30.2039 15.9057C30.4874 15.7137 30.7074 15.4418 30.8361 15.1247L34.131 7.38238L34.1311 7.38218C34.1723 7.28522 34.2245 7.24618 34.2674 7.22648C34.3188 7.20283 34.3899 7.19336 34.4673 7.21099C34.5447 7.22862 34.6047 7.26792 34.6407 7.31146C34.6708 7.34772 34.701 7.40554 34.6961 7.51093L34.6961 7.51096L34.3104 15.9201C34.2908 16.2604 34.3723 16.599 34.5447 16.8931C34.7182 17.1891 34.9759 17.4267 35.2848 17.5757C35.5937 17.7248 35.94 17.7785 36.2796 17.7301C36.6172 17.6819 36.9331 17.5349 37.1873 17.3076L43.5367 11.7554L14.2416 28.36ZM43.9903 12.1173C44.0404 12.0241 44.0384 11.9585 44.027 11.9126C44.0134 11.8576 43.9765 11.7963 43.9147 11.7469C43.8528 11.6976 43.7849 11.6752 43.7282 11.6742C43.6809 11.6733 43.6167 11.6858 43.5371 11.7551L43.9903 12.1173ZM43.9903 12.1173C43.9903 12.1173 43.9903 12.1173 43.9902 12.1174L39.9767 19.5429C39.8114 19.8412 39.7379 20.1819 39.7659 20.5221C39.794 20.8641 39.9234 21.1899 40.1373 21.458C40.3512 21.7261 40.64 21.9246 40.9672 22.028C41.2924 22.1309 41.6408 22.1352 41.9684 22.0404L50.0714 19.7894C50.1731 19.7611 50.2362 19.7777 50.2781 19.7988C50.3285 19.8241 50.3799 19.8736 50.4141 19.9447C50.4483 20.0158 50.4549 20.0869 50.4432 20.1422C50.4335 20.1883 50.4069 20.2484 50.3206 20.3109L50.32 20.3114L43.5168 25.2465C43.2387 25.4435 43.025 25.7185 42.9028 26.0367C42.7798 26.3569 42.755 26.7063 42.8312 27.0405L43.5332 26.8804L42.8312 27.0405C42.9074 27.3748 43.0814 27.6788 43.3309 27.914L43.8247 27.39L43.3309 27.914C43.5791 28.1478 43.8908 28.3029 44.2268 28.36L52.5295 29.8625C52.5295 29.8625 52.5296 29.8625 52.5296 29.8625C52.5296 29.8625 52.5297 29.8625 52.5298 29.8625C52.6338 29.8814 52.6837 29.9239 52.7124 29.9613C52.7469 30.0061 52.7717 30.073 52.7717 30.152C52.7717 30.2309 52.7469 30.2978 52.7124 30.3426C52.6837 30.38 52.6338 30.4225 52.5297 30.4414C52.5297 30.4414 52.5296 30.4414 52.5295 30.4414L44.2281 31.944C43.8921 32.001 43.5804 32.1561 43.3323 32.3899C43.0828 32.625 42.9088 32.9291 42.8326 33.2634C42.7563 33.5978 42.7814 33.9472 42.9043 34.2672C43.0265 34.5854 43.2402 34.8604 43.5183 35.0575L43.9903 12.1173ZM14.5325 34.472L7.71844 39.4097M7.71844 39.4097C6.80116 40.0736 7.4938 41.5107 8.58244 41.2083L16.6896 38.9561M7.71844 39.4097L23.053 52.7542M35.028 44.3403L35.414 52.7542M35.028 44.3403C35.0158 44.1405 35.0633 43.9417 35.1645 43.7691C35.2657 43.5964 35.4159 43.4578 35.5961 43.3709C35.7764 43.2839 35.9784 43.2526 36.1765 43.2809C36.3746 43.3091 36.5598 43.3957 36.7085 43.5296M35.414 52.7542C35.4658 53.8831 33.9092 54.2374 33.4671 53.1977M35.414 52.7542L33.4671 53.1977M33.4671 53.1977L30.1694 45.4491M33.4671 53.1977H24.9998M28.2974 45.4491L24.9998 53.1977M28.2974 45.4491C28.3722 45.262 28.5014 45.1016 28.6683 44.9886C28.8351 44.8756 29.0319 44.8152 29.2334 44.8152C29.4349 44.8152 29.6318 44.8756 29.7987 44.9886C29.9655 45.1016 30.0946 45.262 30.1694 45.4491M24.9998 53.1977C24.5578 54.2374 23.0011 53.8831 23.053 52.7542M24.9998 53.1977L23.053 52.7542M23.053 52.7542L23.4389 44.3403M16.6896 38.9561C16.8817 38.8998 17.0861 38.902 17.2769 38.9624C17.4677 39.0227 17.6362 39.1384 17.761 39.2949C17.8858 39.4513 17.9613 39.6414 17.9777 39.8408C17.9941 40.0403 17.9507 40.2401 17.8531 40.4148M15.408 49.0851L21.7584 43.5296M21.7584 43.5296C21.9072 43.3957 22.0923 43.3091 22.2904 43.2809C22.4885 43.2526 22.6906 43.2839 22.8708 43.3709C23.051 43.4578 23.2013 43.5964 23.3024 43.7691C23.4036 43.9417 23.4511 44.1405 23.4389 44.3403" fill="#FED33D" stroke="#3B0F46" stroke-width="1.44"/>
</g>
<defs>
<clipPath id="clip0_15_152">
<rect width="58.464" height="58.464" fill="white" transform="translate(0 0.920013)"/>
</clipPath>
</defs>
</svg>
