<svg width="47" height="47" viewBox="0 0 47 47" fill="none"
  xmlns="http://www.w3.org/2000/svg">
  <g clip-path="url(#clip0_50_131)">
    <path d="M45.9 23.2C45.9 35.7369 35.7369 45.9 23.2 45.9C10.6631 45.9 0.5 35.7369 0.5 23.2C0.5 10.6631 10.6631 0.5 23.2 0.5C35.7369 0.5 45.9 10.6631 45.9 23.2Z" fill="#FED33D" stroke="#26103D"/>
    <path d="M34.2888 18.2078L34.062 18.6994L34.5701 18.8864C37.3934 19.9256 38.6323 21.6414 38.6323 23.2C38.6323 24.7587 37.3934 26.4745 34.5701 27.5137L34.0623 27.7006L34.2887 28.1921C35.5462 30.9222 35.2086 33.0107 34.1068 34.1128C33.0051 35.2148 30.9177 35.5526 28.1877 34.2934L27.6963 34.0668L27.5091 34.5746C26.4694 37.3955 24.7539 38.6335 23.1954 38.6335C21.6369 38.6335 19.9214 37.3955 18.8817 34.5746L18.6946 34.067L18.2033 34.2933C15.4733 35.5509 13.3848 35.2132 12.2826 34.1114C11.1806 33.0098 10.8428 30.9223 12.102 28.1923L12.3286 27.7009L11.8209 27.5138C8.99995 26.474 7.76196 24.7586 7.76196 23.2C7.76196 21.6415 8.99995 19.926 11.8209 18.8863L12.3284 18.6993L12.1021 18.208C10.8446 15.4779 11.1822 13.3894 12.284 12.2872C13.3856 11.1852 15.4731 10.8475 18.2031 12.1066L18.6945 12.3333L18.8817 11.8255C19.9214 9.00459 21.6369 7.7666 23.1954 7.7666C24.7539 7.7666 26.4694 9.00459 27.5091 11.8255L27.6962 12.333L28.1874 12.1067C30.9175 10.8492 33.006 11.1868 34.1082 12.2886C35.2102 13.3903 35.5479 15.4777 34.2888 18.2078Z" fill="#5C59ED" stroke="#26103D"/>
  </g>
  <defs>
    <clipPath id="clip0_50_131">
      <rect width="46.4" height="46.4" fill="white"/>
    </clipPath>
  </defs>
</svg>
