<svg width="45" height="66" viewBox="0 0 45 66" fill="none"
  xmlns="http://www.w3.org/2000/svg">
  <g clip-path="url(#clip0_50_139)">
    <path d="M22.6095 64.9L22.6097 64.967L22.6088 64.9C18.077 64.9659 13.6321 63.4539 10.2265 60.4895L9.89823 60.8666L10.2265 60.4895C5.90086 56.7246 2.70211 51.6573 1.31025 46.0983L1.31022 46.0981C-0.566142 38.6118 0.871437 30.3712 5.0733 23.9093C4.36686 29.1886 7.10218 34.8933 11.8775 37.3698L12.7493 37.8219L12.602 36.851C10.5399 23.2515 17.6958 8.79356 29.5232 1.88871C22.818 9.83902 22.0598 22.5015 28.2421 30.9789L28.9209 31.9097L29.1372 30.7781C30.2657 24.8743 34.6901 19.7231 40.307 17.6219C37.8777 22.3691 38.9089 28.2893 40.494 33.2742C40.7723 34.1494 41.0644 35.0193 41.3559 35.8873C41.9738 37.727 42.5888 39.5584 43.0632 41.4142C43.7576 44.1306 44.1306 46.834 43.7431 49.5446C43.0791 54.1887 40.2077 58.0017 36.2756 60.675C32.3415 63.3497 27.3766 64.8595 22.6095 64.9Z" fill="#FFADE3" stroke="#26103D"/>
    <path d="M30.6999 63.7455L30.7003 63.7479C27.7407 64.8563 24.5057 64.991 21.6456 64.0172C17.9901 62.7718 14.8042 60.48 12.6975 57.4785C9.97105 53.5909 9.09007 48.5602 10.2323 43.8506C11.1558 47.0379 14.1396 49.5925 17.6717 49.9418L18.6237 50.0359L18.1576 49.2006C14.0174 41.7816 15.3307 31.8182 21.1047 24.8739C18.9391 31.1861 21.2822 38.5981 27.0257 42.1501L27.9325 42.7108L27.7838 41.6551C27.2698 38.0051 28.9073 34.0259 31.9371 31.429C31.5835 34.8134 33.5304 38.048 35.5779 40.5855C35.9573 41.0557 36.3425 41.5166 36.7257 41.9749C37.5327 42.9404 38.3304 43.8948 39.0444 44.9013C40.0879 46.3721 40.9064 47.8955 41.2338 49.5914C41.7936 52.4916 40.7576 55.4357 38.7569 57.9726C36.7567 60.5089 33.8238 62.593 30.6999 63.7455Z" fill="#5C59ED" stroke="#26103D"/>
  </g>
  <defs>
    <clipPath id="clip0_50_139">
      <rect width="44.4" height="65.4" fill="white"/>
    </clipPath>
  </defs>
</svg>
