<svg width="119" height="106" viewBox="0 0 119 106" fill="none" xmlns="http://www.w3.org/2000/svg">
<g filter="url(#filter0_d_15_156)">
<path d="M113.672 22.4743L113.69 21.9376C113.698 21.723 113.717 21.526 113.707 21.3237L113.669 20.6693L113.622 20.1521C113.6 19.9323 113.559 19.7248 113.519 19.5172C113.479 19.3097 113.458 19.1672 113.43 18.9773L113.269 18.4093C113.158 18.2511 113.183 18.0241 113.12 17.8589C113.056 17.6624 112.982 17.4694 112.899 17.2804C112.841 17.1056 112.774 16.9342 112.697 16.7671C112.604 16.5381 112.5 16.314 112.384 16.0955L112.138 15.7441C111.736 15.0579 111.28 14.4056 110.772 13.7935L110.514 13.4244C110.379 13.2311 110.243 13.0378 110.002 12.9186C109.867 12.7833 109.725 12.6555 109.576 12.5357C109.431 12.3986 109.279 12.269 109.121 12.1477C108.974 12.0272 108.818 11.9175 108.655 11.8194L108.164 11.456L107.687 11.1877C107.511 11.0763 107.327 10.9772 107.138 10.8912L106.655 10.6527C106.557 10.5121 106.27 10.4774 106.066 10.4109C105.877 10.3323 105.682 10.2673 105.483 10.2165L104.96 10.0326C104.577 9.93474 104.193 9.83683 103.804 9.76883L50.615 0.474514C47.493 -0.0346513 44.2924 0.707626 41.7082 2.54014C39.1241 4.37266 37.3649 7.14746 36.8129 10.262C36.2608 13.3766 36.9603 16.5795 38.7595 19.1751C40.5587 21.7707 43.3125 23.5495 46.4226 24.1253L71.0441 28.4123L5.64785 74.2033C3.03454 76.0332 1.25294 78.823 0.694979 81.9592C0.137023 85.0953 0.848367 88.3208 2.67261 90.9261C4.49686 93.5314 7.28456 95.303 10.4224 95.8513C13.5602 96.3997 16.7912 95.6797 19.4045 93.8498L84.8008 48.0589L80.4205 72.6793C80.0788 74.2577 80.0589 75.8879 80.3623 77.4722C80.6656 79.0566 81.2858 80.5626 82.1858 81.9003C83.0858 83.2381 84.2472 84.38 85.6004 85.2578C86.9536 86.1356 88.4709 86.7313 90.0616 87.0092C91.6523 87.2872 93.2837 87.2417 94.8582 86.8755C96.4328 86.5093 97.9181 85.8299 99.2255 84.8779C100.533 83.9259 101.635 82.7209 102.467 81.3349C103.299 79.9489 103.843 78.4103 104.067 76.8113L113.524 23.6514C113.596 23.2621 113.645 22.8691 113.672 22.4743Z" fill="#BC7AFF"/>
<path d="M111.671 18.2933L111.671 18.2955C111.674 18.3146 111.679 18.3456 111.683 18.375L111.685 18.3827C111.699 18.4745 111.736 18.707 111.857 18.9719L111.949 19.2955C111.972 19.4504 111.996 19.6031 112.035 19.805C112.076 20.0172 112.102 20.1587 112.117 20.2985C112.118 20.3012 112.118 20.304 112.118 20.3068L112.161 20.7811L112.197 21.4006C112.197 21.4024 112.197 21.4042 112.197 21.406C112.2 21.4683 112.198 21.5042 112.194 21.5787C112.19 21.6413 112.185 21.7309 112.179 21.8861L112.162 22.3957C112.138 22.7253 112.097 23.0535 112.037 23.3788L112.036 23.3866L102.578 76.5464L102.573 76.5741L102.569 76.6019C102.374 77.9996 101.898 79.3447 101.171 80.5568C100.443 81.7689 99.4791 82.8229 98.3355 83.6556C97.1919 84.4883 95.8927 85.0825 94.5157 85.4028C93.1387 85.7231 91.7123 85.7628 90.3219 85.5198C88.9314 85.2768 87.6055 84.7562 86.4232 83.9893C85.241 83.2224 84.2265 82.2248 83.4403 81.0563C82.6541 79.8878 82.1123 78.5722 81.8473 77.1879C81.5823 75.8037 81.5995 74.379 81.8983 72.9992L81.9042 72.9718L81.9091 72.9441L86.2894 48.3237L86.9302 44.722L83.9335 46.8203L18.5373 92.6113C16.2512 94.212 13.4256 94.8412 10.6827 94.3619C7.93994 93.8826 5.50453 92.3344 3.91117 90.0588C2.31781 87.7833 1.6959 84.9652 2.1836 82.224C2.67134 79.4826 4.22905 77.0426 6.5151 75.4419L71.9114 29.6509L74.9106 27.5508L71.3035 26.9228L46.6979 22.6386C46.6954 22.6381 46.6929 22.6377 46.6904 22.6372C43.9749 22.1324 41.5722 20.5787 40.0021 18.3137C38.4306 16.0466 37.8191 13.2483 38.3016 10.5259C38.7842 7.80334 40.3223 5.37654 42.5828 3.77351C44.8413 2.17199 47.6372 1.52293 50.3639 1.96554C50.3664 1.96596 50.369 1.96638 50.3716 1.9668L103.543 11.2583C103.848 11.3115 104.157 11.3883 104.522 11.4812L104.982 11.6429L105.044 11.6649L105.109 11.6814C105.237 11.7142 105.363 11.7563 105.486 11.8073L105.541 11.8301L105.597 11.8485C105.655 11.8673 105.712 11.8836 105.76 11.8966L105.985 12.008L106.467 12.2465L106.49 12.2578L106.513 12.2683C106.639 12.3254 106.761 12.3912 106.878 12.4651L106.911 12.4861L106.945 12.5053L107.34 12.7274L107.755 13.0347L107.813 13.078L107.876 13.1155C107.976 13.1759 108.072 13.2435 108.163 13.3178L108.182 13.3333L108.202 13.3483C108.319 13.4378 108.431 13.5332 108.537 13.634L108.581 13.6757L108.629 13.7137C108.734 13.7988 108.835 13.8896 108.931 13.9856L109.108 14.163L109.226 14.2215C109.228 14.2242 109.23 14.227 109.232 14.2299C109.245 14.2478 109.258 14.2666 109.275 14.2917L109.534 14.6607L109.569 14.7111L109.608 14.7584C110.063 15.3074 110.473 15.8925 110.833 16.5079L110.864 16.561L110.9 16.6113L111.088 16.881C111.164 17.0293 111.233 17.1808 111.296 17.3351L111.309 17.3676L111.323 17.3994C111.376 17.5145 111.423 17.6325 111.462 17.7529L111.486 17.8233L111.516 17.8911C111.574 18.0226 111.625 18.1568 111.671 18.2933Z" stroke="#26103D" stroke-width="3.024"/>
</g>
<defs>
<filter id="filter0_d_15_156" x="0.509338" y="0.317764" width="117.953" height="105.433" filterUnits="userSpaceOnUse" color-interpolation-filters="sRGB">
<feFlood flood-opacity="0" result="BackgroundImageFix"/>
<feColorMatrix in="SourceAlpha" type="matrix" values="0 0 0 0 0 0 0 0 0 0 0 0 0 0 0 0 0 0 127 0" result="hardAlpha"/>
<feOffset dx="4.752" dy="9.72"/>
<feComposite in2="hardAlpha" operator="out"/>
<feColorMatrix type="matrix" values="0 0 0 0 0.14902 0 0 0 0 0.0627451 0 0 0 0 0.239216 0 0 0 1 0"/>
<feBlend mode="normal" in2="BackgroundImageFix" result="effect1_dropShadow_15_156"/>
<feBlend mode="normal" in="SourceGraphic" in2="effect1_dropShadow_15_156" result="shape"/>
</filter>
</defs>
</svg>
