<svg width="144" height="110" viewBox="0 0 144 110" fill="none"
  xmlns="http://www.w3.org/2000/svg">
  <g filter="url(#filter0_d_50_35)">
    <path d="M140.699 28.8552V73.9023C140.699 78.0963 137.826 81.8372 133.551 83.1844C127.007 85.2421 121.829 90.0517 119.61 96.1249C118.16 100.097 114.13 102.76 109.611 102.76H31.0895C26.5692 102.76 22.5387 100.097 21.0886 96.1249C18.8703 90.0492 13.6918 85.2421 7.14816 83.1844C2.869 81.8372 0 78.0963 0 73.9023V28.8552C0 24.6612 2.87278 20.9203 7.14944 19.5731C13.6931 17.5154 18.8703 12.7058 21.0886 6.63509C22.5387 2.66329 26.5692 0 31.0895 0H109.611C114.13 0 118.16 2.66329 119.61 6.63509C121.829 12.7095 127.007 17.5154 133.551 19.5731C137.826 20.9203 140.699 24.6612 140.699 28.8552Z" fill="#FFADE3"/>
  </g>
  <path d="M42.8816 38.8165C42.7293 41.3555 41.8806 43.8036 40.4285 45.8923C39.3694 47.3985 37.9894 48.6514 36.3879 49.5607C35.7205 49.9805 34.9889 50.2884 34.2221 50.4722C32.2562 50.9716 30.2252 50.8805 28.2843 50.9042C25.9498 50.9517 23.6204 50.9766 21.2897 51.0004C21.2393 51.0035 21.1888 50.994 21.143 50.9727C21.0972 50.9515 21.0573 50.919 21.0272 50.8785C20.997 50.8379 20.9775 50.7905 20.9703 50.7405C20.9632 50.6905 20.9686 50.6394 20.9862 50.5921C20.9682 50.5328 20.9677 50.4695 20.9848 50.41C21.0019 50.3504 21.0357 50.297 21.0824 50.2562C22.0928 49.0338 22.7698 47.6179 23.2632 46.1558C23.6903 44.8123 23.9301 43.4451 24.1375 42.1028C24.3498 40.592 24.5122 39.1061 24.6933 37.6178C24.8544 36.2993 25.0868 34.9795 25.0281 33.6847C24.9944 32.561 24.7133 31.4784 23.9264 30.758C23.8459 30.7359 23.7768 30.684 23.7331 30.6128C23.6895 30.5416 23.6747 30.4565 23.6916 30.3747C23.7108 30.271 23.7644 30.1768 23.8437 30.1072C23.923 30.0377 24.0234 29.9969 24.1288 29.9914C24.5197 29.9427 24.9344 29.8953 25.3216 29.8665C26.9004 29.707 28.4875 29.6428 30.0741 29.6742C31.4418 29.6742 32.8058 29.698 34.156 29.8178C36.5453 30.0588 38.9871 30.6095 40.6758 32.2651C42.3258 33.8758 42.984 36.3705 42.8816 38.8165ZM36.875 37.8576C37.1461 35.9148 37.0536 33.8283 35.7584 32.4611C34.8166 31.4785 33.399 30.974 31.9439 31.0939C31.5692 32.7258 31.2507 34.3315 30.9259 35.9634C30.3589 38.8177 29.8643 41.672 29.4196 44.5026C29.1698 45.941 28.9687 47.3744 28.7677 48.8191L28.674 49.4908C28.8513 49.4955 29.0287 49.4871 29.2048 49.4658C29.7727 49.241 30.3167 48.9599 30.8285 48.6268C34.5519 46.227 36.3242 41.7907 36.875 37.8576Z" fill="#3F9672"/>
  <path d="M57.4751 37.905C57.7999 38.6729 57.5801 39.5607 57.1566 40.3523C56.7382 41.1189 56.1199 41.7669 55.3118 42.0541C54.5512 42.3425 53.773 42.2464 53.2134 41.7907C52.3753 41.0952 52.2517 39.9178 52.464 38.794H52.3391C51.9716 38.9055 51.6238 39.074 51.3087 39.2935C50.8125 39.6112 50.3519 39.9812 49.9347 40.3972C49.3881 40.944 48.935 41.5767 48.5933 42.2701C48.4597 43.5649 48.3273 44.861 48.2448 46.1321C48.1299 47.6429 48.2199 49.2249 49.1192 50.3773C49.156 50.4385 49.1767 50.5081 49.1794 50.5795C49.182 50.6509 49.1664 50.7219 49.1342 50.7856C49.1007 50.8633 49.0453 50.9296 48.9747 50.9764C48.9042 51.0232 48.8216 51.0484 48.737 51.049C48.3622 51.0253 47.9763 51.0016 47.5928 51.0016C47.5691 51.0016 47.5204 51.0016 47.5004 50.9778C45.7318 50.9291 43.9495 50.9778 42.1584 51.1027C42.1083 51.1079 42.0577 51.1021 42.0102 51.0854C41.9626 51.0688 41.9194 51.0419 41.8835 51.0066C41.6812 50.9104 41.5525 50.6233 41.8473 50.4072C42.623 49.8316 43.1426 49.04 43.4823 48.1523C43.7629 47.3668 43.9646 46.5554 44.0843 45.73C44.2842 44.6512 44.4378 43.5474 44.5839 42.4686C44.7313 41.4136 44.9062 40.3335 44.9349 39.2785C44.9599 38.4157 44.7139 37.6003 43.9482 37.2407C43.7671 37.1683 43.7583 36.8799 43.8745 36.7413C43.8745 36.7175 43.9057 36.6938 43.9095 36.6701C43.9494 36.619 44.0001 36.5775 44.0579 36.5483C44.1158 36.5192 44.1794 36.5032 44.2442 36.5015C45.8339 36.4251 47.4266 36.433 49.0155 36.5253C49.0858 36.5242 49.1543 36.5475 49.2094 36.5912C49.2645 36.6349 49.3028 36.6964 49.3177 36.765C49.3688 36.8339 49.3912 36.9198 49.3802 37.0048C49.351 37.0824 49.3313 37.1633 49.3215 37.2457L49.2116 38.0361C49.1066 38.6117 49.023 39.2123 48.9181 39.7841C49.6525 38.824 50.4719 37.9375 51.5048 37.242C52.8562 36.3305 54.5474 35.8985 55.9576 36.4504C56.632 36.7301 57.2128 37.2083 57.4751 37.905Z" fill="#3F9672"/>
  <path d="M69.1373 46.6352C69.0875 46.9549 69.0037 47.2685 68.8875 47.5704C68.3704 48.8652 67.305 49.969 66.1034 50.6645C64.6396 51.5272 63.0458 51.5997 61.537 51.4074C60.7876 51.3113 60.0319 51.1914 59.3562 50.8805C58.985 50.7055 58.6453 50.4705 58.3507 50.185C58.3447 50.1849 58.3388 50.1835 58.3333 50.1809C58.3278 50.1783 58.323 50.1746 58.3191 50.17C58.3152 50.1653 58.3123 50.16 58.3107 50.1542C58.309 50.1484 58.3086 50.1423 58.3095 50.1363C58.1437 50.0038 57.9955 49.8507 57.8686 49.6806C57.0863 48.6919 56.5961 47.5043 56.4534 46.2519C56.1337 43.7335 57.0855 41.0477 59.0439 39.0562C60.1121 37.9696 61.4368 37.1696 62.8959 36.73C63.0009 36.6881 63.1097 36.6559 63.2207 36.6339H63.2681C64.1854 36.4346 65.1341 36.4265 66.0547 36.6102C66.1269 36.6141 66.1979 36.6306 66.2645 36.6589C66.2932 36.6551 66.3224 36.6574 66.3501 36.6655C66.3778 36.6737 66.4036 36.6876 66.4257 36.7063C67.4937 36.9952 68.4164 37.6702 69.0149 38.6004C69.6914 39.6874 69.921 40.994 69.6556 42.2464C69.6264 42.3512 69.5632 42.4433 69.476 42.5084C69.3887 42.5734 69.2823 42.6078 69.1735 42.606C66.2583 42.7021 63.3206 42.7733 60.3941 42.7733C60.2531 43.5347 60.2577 44.316 60.4078 45.0757C60.7388 46.8237 61.9629 48.1972 63.7265 48.6255C64.6269 48.8443 65.5743 48.7601 66.4219 48.3858C67.2675 48.0024 68.0332 47.3307 68.4391 46.4916C68.6414 46.0596 69.2897 46.2269 69.1373 46.6352ZM60.5453 42.0304L65.9048 41.958C65.9949 41.2746 66.0366 40.5857 66.0297 39.8965C66.0135 39.1473 65.9323 38.3607 65.5088 37.7851C65.0417 37.1858 64.2111 37.1146 63.4592 37.5216C62.5524 38.0011 61.9104 38.985 61.4296 39.8478C61.0481 40.5372 60.7512 41.27 60.5453 42.0304Z" fill="#3F9672"/>
  <path d="M85.1024 48.4347C84.8729 48.9274 84.5664 49.3805 84.1943 49.7769C83.385 50.5922 82.3071 51.0966 81.2242 51.1204C80.165 51.1441 79.1221 50.7121 78.5138 49.9205C78.3586 49.7285 78.2266 49.519 78.1204 49.2962C77.294 49.9168 76.384 50.4174 75.4174 50.7833C73.6513 51.4076 71.5767 51.1429 70.6574 49.6595C69.8143 48.316 70.1878 46.3257 71.7029 45.2707C72.4248 44.7437 73.2504 44.504 74.076 44.2631C74.9503 44.0233 75.7984 43.7836 76.629 43.3278C77.2931 42.9846 77.915 42.5656 78.4826 42.0792C78.5263 41.7683 78.5937 41.4549 78.6624 41.144C78.7873 40.5934 78.9122 40.0203 78.8723 39.4659C78.7811 38.5782 77.8668 37.9064 76.9762 37.9314C76.6377 37.9551 76.2406 38.0562 75.9671 38.291C75.6073 38.6268 75.8421 38.9865 76.1269 39.2025C76.1681 39.2499 76.2131 39.2737 76.2518 39.3274C76.2755 39.3274 76.2955 39.3511 76.3205 39.3511C76.3884 39.3933 76.4457 39.4505 76.4879 39.5184C76.7702 39.7344 77.0212 39.9978 77.0874 40.3824C77.1711 40.9817 76.8026 41.5573 76.3555 42.0131C75.5761 42.7797 74.4333 43.2367 73.459 42.9957C73.3705 42.9979 73.2833 42.9731 73.2092 42.9245C73.1855 42.9245 73.1855 42.9245 73.188 42.9008C72.255 42.54 71.7628 41.6047 71.9814 40.5497C72.3636 38.6768 74.4233 37.3358 76.1344 36.7602C77.8706 36.1846 79.8815 36.3532 81.2055 37.3845C82.7992 38.6793 83.1452 40.8381 82.9728 42.9245C82.9143 43.6004 82.8201 44.2727 82.6905 44.9386C82.616 45.2461 82.5642 45.5586 82.5357 45.8737C82.4741 46.4566 82.4968 47.0454 82.6031 47.6218C82.6226 47.9252 82.6857 48.2241 82.7905 48.5095C82.8378 48.6188 82.8955 48.7234 82.9628 48.8217L83.1277 49.014C83.1526 49.014 83.1727 49.0377 83.1964 49.0377C83.2138 49.04 83.2297 49.0484 83.2413 49.0615C83.2539 49.0597 83.2666 49.0609 83.2785 49.0651C83.2905 49.0692 83.3013 49.0761 83.31 49.0852H83.3825L83.4337 49.0615C83.4762 49.0587 83.5181 49.0508 83.5586 49.0377C84.0182 48.8455 84.2705 48.4134 84.5191 48.0064C84.5716 47.9203 84.6551 47.8575 84.7523 47.8308C84.8496 47.8042 84.9533 47.8156 85.0424 47.8628C85.221 47.9577 85.2148 48.1737 85.1199 48.3422L85.1024 48.4347ZM77.8118 48.0738C77.7599 47.6359 77.7575 47.1937 77.8044 46.7553C77.8806 45.7002 78.0541 44.6214 78.2303 43.5414C77.5945 43.9734 76.9613 44.3817 76.3867 44.8849C75.8122 45.388 75.2901 46.0361 75.094 46.7578C74.9416 47.3334 74.9878 48.0289 75.3862 48.4372C75.8509 48.8916 76.6627 48.7481 77.2598 48.4372L77.8118 48.0738Z" fill="#3F9672"/>
  <path d="M110.996 50.2563C111.041 50.3246 111.063 50.4049 111.06 50.4865C111.058 50.568 111.03 50.6468 110.981 50.712C110.961 50.7838 110.914 50.8455 110.851 50.8854C110.788 50.9252 110.712 50.9404 110.639 50.928C108.646 50.7608 106.643 50.785 104.655 51.0004C104.46 51.0241 104.346 50.8081 104.37 50.6408L104.38 50.5684C104.377 50.509 104.388 50.4497 104.412 50.3954C104.437 50.3412 104.473 50.2934 104.52 50.2563C105.073 49.7293 105.455 49.0576 105.793 48.3621C106.167 47.4032 106.382 46.3719 106.588 45.4117L106.618 45.1969C106.648 45.1283 106.667 45.0554 106.673 44.9809C106.946 43.5724 107.113 42.1454 107.173 40.7119C107.255 39.6082 107.231 38.4095 106.232 37.8339C105.586 37.4743 104.751 37.4494 103.967 37.7378L103.813 37.8102C103.752 37.8503 103.683 37.8748 103.611 37.8814C103.344 38.0069 103.095 38.1682 102.872 38.3608C102.133 39.0088 101.707 39.8242 101.374 40.6869C101.145 42.3189 100.918 43.9495 100.837 45.5565C100.749 47.2109 100.754 48.889 101.601 50.2088C101.649 50.2747 101.676 50.3539 101.677 50.4355C101.678 50.5171 101.654 50.5971 101.608 50.6645C101.582 50.7378 101.532 50.7995 101.465 50.839C101.398 50.8785 101.319 50.8932 101.242 50.8806C99.2588 50.701 97.2621 50.7249 95.2833 50.9517C95.0885 50.9767 94.9511 50.7607 94.9773 50.5684V50.5447C94.9912 50.4366 95.0389 50.3357 95.1134 50.2563C95.6668 49.7293 96.0452 49.0813 96.3825 48.3833C96.7834 47.4007 97.007 46.3444 97.1893 45.3617C97.2183 45.2929 97.2364 45.22 97.2431 45.1457L97.273 44.9297C97.5426 43.5199 97.7183 42.0938 97.7988 40.6607C97.8575 39.5582 97.8601 38.3346 96.8583 37.7827C96.5092 37.6066 96.1265 37.5071 95.7358 37.4907C95.345 37.4743 94.9553 37.5415 94.5926 37.6878C94.5314 37.7072 94.4718 37.731 94.414 37.759C94.356 37.8031 94.2857 37.8284 94.2129 37.8314C93.9528 37.9565 93.7118 38.1179 93.4972 38.3109C92.9799 38.7705 92.5658 39.3343 92.2819 39.9653C92.2282 40.1813 92.1745 40.3973 92.1433 40.6133C91.931 41.6209 91.7186 42.6273 91.5537 43.6349L91.4451 44.4028C91.3417 45.1891 91.3112 45.9833 91.3539 46.7752C91.3885 47.2367 91.4951 47.69 91.6699 48.1186C91.8552 48.522 92.0637 48.9143 92.2944 49.2936C92.4905 49.6057 92.8615 50.0427 92.7329 50.4448C92.7466 50.6845 92.6179 50.9243 92.3331 50.9005C90.1312 50.7295 87.9181 50.7616 85.722 50.9967C85.6738 50.9953 85.6266 50.9833 85.5834 50.9618C85.5403 50.9402 85.5023 50.9095 85.4722 50.8718C85.2449 50.7757 85.1413 50.4872 85.4111 50.2725C86.2117 49.6956 86.73 48.9052 87.071 48.0175C87.3733 47.2259 87.5107 46.4105 87.6705 45.6189C87.8729 44.5164 88.0228 43.4364 88.1776 42.3338C88.325 41.2788 88.4999 40.1988 88.5286 39.1437C88.5286 38.3046 88.2788 37.513 87.5107 37.1534C87.3533 37.081 87.3458 36.7938 87.462 36.654C87.462 36.629 87.4919 36.6053 87.4957 36.5816C87.5355 36.5305 87.5862 36.4889 87.6441 36.4597C87.702 36.4306 87.7656 36.4146 87.8304 36.413C89.2282 36.3376 90.6291 36.3459 92.0259 36.438C92.25 36.4071 92.4782 36.4405 92.6841 36.5341C92.7288 36.5485 92.7698 36.5722 92.8046 36.6037C92.8395 36.6351 92.8672 36.6735 92.8861 36.7165C92.905 36.7594 92.9145 36.8059 92.9142 36.8528C92.9138 36.8997 92.9035 36.946 92.884 36.9886C92.8772 36.9889 92.8707 36.9915 92.8656 36.9961C92.8606 37.0006 92.8574 37.0068 92.8565 37.0136C92.8103 37.3494 92.7391 37.6853 92.6679 38.0199C92.9657 37.7415 93.2899 37.4926 93.6359 37.277C95.1523 36.4012 96.9533 36.1598 98.6469 36.6053C99.8472 36.9411 100.926 37.8052 101.314 38.9776C101.756 38.3044 102.347 37.7418 103.041 37.3332C104.558 36.4578 106.359 36.2168 108.053 36.6627C109.6 37.0935 110.926 38.4107 110.832 40.1151L110.819 40.2112C110.591 42.0105 110.319 43.8097 110.229 45.6314C110.12 47.2584 110.149 48.9377 110.996 50.2563Z" fill="#3F9672"/>
  <path d="M125.067 43.9969C126.014 45.4603 125.708 47.4743 124.442 48.9851C122.912 50.8318 120.417 51.6958 118.222 51.5996C117.596 51.5695 116.974 51.4893 116.361 51.3599C115.802 51.2351 115.212 51.1676 114.691 50.9516C113.754 50.617 112.91 49.969 112.482 49.0787C112.013 48.1435 112.253 46.9449 113.069 46.0821C113.368 45.763 113.74 45.5219 114.154 45.3798C114.568 45.2377 115.01 45.1989 115.442 45.2668C115.835 45.3233 116.202 45.4946 116.498 45.7591C116.794 46.0237 117.006 46.3698 117.106 46.7539C117.372 47.7615 116.707 49.08 115.798 49.7505C115.71 49.8133 115.605 49.847 115.497 49.8467C115.872 50.471 116.572 50.5658 117.246 50.6857C118.065 50.8293 118.877 50.6857 119.705 50.4223C120.452 50.2112 121.125 49.7956 121.648 49.2224C122.1 48.7175 122.395 48.0932 122.5 47.4243C122.58 46.8487 122.52 46.2494 122.173 45.8174C121.826 45.3854 121.27 45.2418 120.698 45.2181C120.025 45.1898 119.351 45.1977 118.679 45.2418C117.947 45.2731 117.213 45.2312 116.489 45.1169C115.217 44.9484 113.923 44.4214 113.392 43.244C112.971 42.3088 113.108 41.1576 113.537 40.15C114.005 39.0801 114.738 38.1472 115.667 37.4393C116.957 36.4566 118.511 35.9772 120.018 35.8323C120.688 35.7687 121.363 35.7771 122.031 35.8573C122.618 35.9109 123.197 36.0397 123.752 36.2406C124.017 36.3275 124.266 36.4569 124.49 36.6239C124.559 36.6489 124.624 36.6963 124.692 36.7201C125.554 37.2482 126.105 38.111 125.926 39.2173C125.828 39.7576 125.59 40.263 125.237 40.6836C124.884 41.1042 124.427 41.4255 123.912 41.6158C122.929 41.9505 121.832 41.7407 121.319 40.9441C121.016 40.5358 120.998 39.9839 121.194 39.457C121.381 38.9775 121.749 38.5693 122.068 38.1622C122.212 37.9937 122.434 37.7777 122.443 37.5616C122.424 37.3716 122.338 37.1944 122.2 37.0622C121.891 36.7026 121.377 36.6065 120.845 36.6302C119.777 36.7263 118.637 37.3257 117.875 38.141C117.333 38.7653 116.803 39.6281 116.91 40.4197C117.049 41.4748 118.338 41.6907 119.23 41.8343C120.403 42.0266 121.623 42.0504 122.751 42.3863C123.692 42.6784 124.53 43.2016 125.067 43.9969Z" fill="#3F9672"/>
  <path d="M33.069 76.3733C31.1055 78.9155 27.8131 80.1628 24.9029 80.043C24.072 79.9905 23.2459 79.8783 22.4311 79.7071C21.7066 79.5635 20.9323 79.4187 20.2528 79.1552C19.0487 78.6758 17.9458 77.8129 17.415 76.6367C16.8454 75.3881 17.0977 73.7587 18.1706 72.6075C18.9937 71.6973 20.1541 71.289 21.2307 71.4837C21.7396 71.5693 22.2103 71.808 22.5801 72.1678C22.9498 72.5276 23.2011 72.9916 23.3004 73.4978C23.4665 74.1933 23.2841 74.9849 22.9706 75.6803C22.7371 76.2431 22.3979 76.7559 21.9714 77.1912C21.9998 77.2678 22.0381 77.3404 22.0851 77.4072C22.3774 77.7193 22.8607 77.8629 23.2729 78.0065C23.7652 78.1606 24.2743 78.2549 24.7892 78.2874C24.853 78.2834 24.917 78.2915 24.9778 78.3111C25.1726 78.2874 25.3438 78.2624 25.5399 78.2387C25.8783 78.215 26.2418 78.1913 26.6078 78.1426C27.0278 78.0477 27.4349 77.9031 27.8206 77.7118C29.4156 76.9439 30.6934 75.3844 30.6934 73.6589C30.6796 72.891 30.4548 72.0994 29.874 71.6199C29.3144 71.1641 28.4851 71.0917 27.7207 71.068C26.8601 71.0443 26.007 71.1404 25.1439 71.1404C24.1336 71.1686 23.1232 71.0882 22.13 70.9007C20.5463 70.5648 19.0837 69.7008 18.5816 68.1425C18.1631 66.8477 18.4192 65.3606 19.0187 63.9934C19.6408 62.5942 20.5947 61.3676 21.7978 60.4199C23.4902 59.1251 25.5274 58.4533 27.4946 58.2848C28.3626 58.1933 29.2386 58.2097 30.1026 58.3335C30.865 58.4122 31.6139 58.5893 32.3308 58.8604C32.6483 58.9968 32.9465 59.1744 33.2176 59.3886C33.3059 59.4193 33.3899 59.4613 33.4674 59.5134C33.9982 59.829 34.4397 60.2746 34.7502 60.8082C35.0694 61.4372 35.1713 62.1542 35.0399 62.8472C34.9376 63.5621 34.6464 64.2368 34.1964 64.8018C33.7463 65.3667 33.1536 65.8014 32.4794 66.0611C31.2129 66.5406 29.7666 66.2522 29.1259 65.1734C28.9529 64.8579 28.8603 64.5047 28.8562 64.145C28.852 63.7853 28.9365 63.4301 29.1021 63.1107C29.4193 62.3915 30.0064 61.7921 30.3911 61.0966C30.5248 60.8319 30.6984 60.4486 30.5397 60.2089C30.4148 60.0403 30.165 59.9929 29.9739 59.9692C29.294 59.8413 28.597 59.8333 27.9143 59.9455C26.4945 60.1338 25.1819 60.8022 24.1947 61.8396C23.4353 62.6312 22.8207 63.7824 23.0855 64.79C23.4702 66.156 25.1027 66.4918 26.3917 66.7078C27.8906 66.9476 29.4943 66.9963 30.9382 67.4758C32.1772 67.8828 33.2239 68.627 33.8896 69.7058C35.0737 71.6486 34.6453 74.3581 33.069 76.3733Z" fill="#3F9672"/>
  <path d="M50.3642 79.1314C50.3837 79.2041 50.3823 79.2809 50.3603 79.3529C50.3382 79.4249 50.2962 79.4892 50.2393 79.5385C50.2386 79.5453 50.2355 79.5516 50.2304 79.5563C50.2253 79.5609 50.2187 79.5635 50.2118 79.5635C50.179 79.6035 50.1356 79.6335 50.0867 79.6503C50.0377 79.667 49.985 79.6698 49.9345 79.6583L48.9353 79.5872C48.8637 79.5913 48.7919 79.5833 48.723 79.5635C47.0881 79.4715 45.4483 79.5354 43.8256 79.7545C43.6307 79.7794 43.4958 79.5385 43.5295 79.2987C43.5402 79.2112 43.5731 79.1278 43.6252 79.0565C43.6772 78.9853 43.7466 78.9285 43.8268 78.8917C43.8277 78.885 43.831 78.879 43.8361 78.8746C43.8411 78.8703 43.8476 78.8679 43.8543 78.8679C44.3122 78.4134 44.692 77.8865 44.9784 77.3085C45.0971 76.9726 45.1895 76.6604 45.2844 76.3258C45.2692 76.2859 45.2665 76.2423 45.2769 76.2009C45.4418 75.3606 45.5842 74.5216 45.7253 73.6825C45.8502 72.771 45.9326 71.8596 46.06 70.9481C46.1375 70.3962 46.2387 69.8443 46.1712 69.2937C46.115 68.7758 45.9285 68.2805 45.6292 67.854C45.3019 67.447 44.8485 67.0874 44.2765 67.0624C43.7281 67.0387 43.1461 67.2547 42.6702 67.5619C42.0382 67.9689 41.6148 68.5932 41.2638 69.2163L41.1963 69.6957C41.0714 70.3912 40.9328 71.0629 40.7879 71.7584C40.5069 73.0782 40.2509 74.3967 40.357 75.6915C40.3798 76.2944 40.5167 76.8876 40.7605 77.4395C40.8854 77.728 41.0103 78.0151 41.1189 78.3036C41.2276 78.592 41.33 78.8555 41.4374 79.1189C41.4695 79.1805 41.4816 79.2504 41.4719 79.3192C41.4623 79.3879 41.4314 79.4519 41.3837 79.5022C41.3529 79.572 41.3011 79.6303 41.2354 79.669C41.1698 79.7078 41.0937 79.725 41.0178 79.7182C38.8262 79.5267 36.621 79.5509 34.4342 79.7907C34.3515 79.794 34.2702 79.7684 34.2043 79.7182C34.1464 79.6893 34.0967 79.6465 34.0595 79.5936C34.0222 79.5407 33.9987 79.4793 33.991 79.4151C33.9834 79.3508 33.9918 79.2857 34.0155 79.2255C34.0392 79.1653 34.0774 79.112 34.1269 79.0702C35.0799 78.0876 35.6008 76.7691 35.9667 75.5217C36.3414 74.2506 36.5425 72.9546 36.7436 71.6848C37.0059 70.149 37.2432 68.6382 37.4293 67.1274C37.6404 65.6166 37.8727 64.1307 37.9876 62.6186C38.0738 61.4949 38.0963 59.9566 37.1595 59.2849C36.9834 59.16 36.9871 58.9727 37.0821 58.8054C37.1064 58.7242 37.1556 58.6525 37.2229 58.6008C37.2901 58.549 37.3719 58.5197 37.4568 58.517C39.061 58.3928 40.6727 58.4011 42.2755 58.5419C42.3223 58.5391 42.3692 58.5467 42.4127 58.5642C42.4563 58.5816 42.4954 58.6085 42.5273 58.6429C42.5592 58.6773 42.5831 58.7183 42.5972 58.7631C42.6113 58.8078 42.6154 58.8551 42.609 58.9016C42.5415 59.381 42.4541 59.8367 42.3904 60.2925C42.4031 60.374 42.3913 60.4574 42.3567 60.5322C42.1918 61.5398 42.0507 62.5462 41.9095 63.5538C41.7684 64.5615 41.6048 65.5691 41.5111 66.5755C41.7918 66.3657 42.0907 66.1814 42.4041 66.0248C44.0803 65.1845 46.0126 64.9211 47.6363 65.4967C49.0565 65.9761 50.2218 67.2447 50.1406 68.8542L50.1269 68.9503C49.8995 70.7483 49.6273 72.5476 49.5161 74.3455C49.4424 75.905 49.4362 77.4883 50.1669 78.7831C50.2294 78.8165 50.281 78.867 50.316 78.9287C50.3509 78.9903 50.3676 79.0606 50.3642 79.1314Z" fill="#3F9672"/>
  <path d="M58.8738 79.1788C58.9112 79.2353 58.9326 79.301 58.9357 79.3687C58.9388 79.4364 58.9234 79.5037 58.8912 79.5634C58.8675 79.6473 58.8145 79.7199 58.7419 79.7682C58.6693 79.8165 58.5819 79.8373 58.4953 79.8268C58.1206 79.8031 57.7309 79.8031 57.35 79.7794H57.2538C55.4852 79.7307 53.7066 79.7544 51.9155 79.8743C51.8692 79.8881 51.8196 79.8863 51.7745 79.8692C51.7293 79.852 51.6911 79.8205 51.6657 79.7794C51.6069 79.7612 51.5548 79.7262 51.5157 79.6788C51.4765 79.6313 51.452 79.5735 51.4453 79.5124C51.4385 79.4513 51.4498 79.3895 51.4776 79.3347C51.5054 79.2799 51.5486 79.2344 51.6019 79.2038C52.3508 78.6126 52.9186 77.823 53.2407 76.9251C53.5211 76.1395 53.7232 75.3281 53.844 74.5028C54.0426 73.4227 54.2187 72.3202 54.3436 71.2414C54.4922 70.1851 54.667 69.1063 54.6908 68.075C54.7158 67.2122 54.4697 66.3969 53.7053 66.0373C53.5267 65.9411 53.5155 65.6764 53.6341 65.5091L53.6891 65.4616C53.7246 65.4089 53.7712 65.3644 53.8255 65.3312C53.8798 65.298 53.9406 65.277 54.0038 65.2694C55.5935 65.1929 57.1862 65.2008 58.7751 65.2931C58.8438 65.2981 58.9093 65.3236 58.9633 65.3663C59.0172 65.4091 59.0569 65.4671 59.0774 65.5328C59.1272 65.6111 59.148 65.7043 59.1361 65.7963C59.1274 65.8788 59.1081 65.9598 59.0786 66.0373C59.0986 66.061 59.0924 66.1084 59.0611 66.1559L58.9712 66.8039C58.8363 67.5955 58.7289 68.3634 58.6215 69.1301C58.3255 71.0729 58.1531 72.992 57.997 74.9336C57.8883 76.4456 57.9782 78.0276 58.8738 79.1788ZM54.1987 62.8708C54.2436 62.199 54.732 61.6222 55.3103 61.2639C56.8329 60.3287 60.0778 60.2812 59.8892 62.4875L59.8755 62.5824C59.7281 63.6387 58.7513 64.2618 57.7671 64.4553C56.904 64.6226 55.9723 64.5989 55.2204 64.3117C54.5821 64.0707 54.1187 63.6137 54.1987 62.8708Z" fill="#3F9672"/>
  <path d="M76.0354 78.9391C76.0891 79.0025 76.1192 79.0824 76.1208 79.1654C76.1224 79.2484 76.0953 79.3295 76.0441 79.3948C76.0137 79.4598 75.9654 79.5147 75.9047 79.553C75.844 79.5913 75.7737 79.6114 75.7019 79.6108C73.7267 79.4192 71.7365 79.4434 69.7666 79.6833C69.5705 79.707 69.433 79.491 69.4605 79.2987V79.275C69.4359 79.2026 69.4347 79.1243 69.4571 79.0512C69.4795 78.9782 69.5244 78.914 69.5854 78.8679C70.1662 78.316 70.5509 77.6193 70.8919 76.9001C71.2379 75.9649 71.4452 75.006 71.6413 74.0945L71.6713 73.8785C71.6781 73.796 71.6979 73.7151 71.73 73.6388C71.9784 72.2266 72.1452 70.8012 72.2296 69.3698C72.2846 68.291 72.287 67.0674 71.2853 66.5167C70.6396 66.1559 69.7803 66.1322 69.0234 66.3919C68.9722 66.4156 68.8985 66.4631 68.8423 66.4868C68.7922 66.5244 68.7297 66.5417 68.6674 66.5355C68.3998 66.6697 68.1505 66.8375 67.9255 67.0349C67.3993 67.4864 66.9836 68.0523 66.7102 68.6893C66.6554 68.887 66.6112 69.0875 66.5778 69.2899C66.3654 70.2963 66.1556 71.2802 66.0145 72.2865L65.9071 73.0532C65.7839 73.8376 65.7449 74.6329 65.7909 75.4255C65.8311 75.8785 65.9389 76.3229 66.1107 76.7441C66.3025 77.1491 66.5198 77.5415 66.7614 77.919C66.9575 78.2311 67.3497 78.6869 67.1661 79.1426C67.1805 79.2019 67.1808 79.2637 67.1669 79.3231C67.153 79.3826 67.1253 79.4379 67.086 79.4846C67.0467 79.5313 66.9969 79.5681 66.9408 79.5919C66.8846 79.6158 66.8235 79.6262 66.7626 79.6221C64.5622 79.4549 62.3515 79.4792 60.1553 79.6945C60.1057 79.7054 60.0538 79.6989 60.0083 79.6761C59.9629 79.6534 59.9266 79.6159 59.9055 79.5696C59.6782 79.4735 59.5745 79.1863 59.8655 78.994C60.608 78.4074 61.1738 77.627 61.5005 76.7391C61.7809 75.9535 61.983 75.1421 62.1038 74.3168C62.3024 73.238 62.456 72.1342 62.6034 71.0554C62.752 70.0004 62.9294 68.8966 62.9544 67.8652C62.9794 67.0024 62.7046 66.2345 61.9377 65.8749C61.7828 65.7788 61.7715 65.5154 61.8914 65.3481C61.8914 65.3231 61.919 65.3231 61.9464 65.2994C61.9794 65.247 62.0254 65.2041 62.0799 65.1747C62.1344 65.1454 62.1955 65.1307 62.2574 65.1321C63.6555 65.0478 65.0573 65.0478 66.4554 65.1321C66.6787 65.126 66.9014 65.1585 67.1136 65.2282C67.1583 65.2428 67.1994 65.2666 67.2342 65.2981C67.2691 65.3297 67.2968 65.3683 67.3157 65.4113C67.3345 65.4543 67.3441 65.5009 67.3437 65.5479C67.3433 65.5948 67.333 65.6412 67.3135 65.6839C67.3135 65.7077 67.286 65.7076 67.2835 65.7314C67.2361 66.0672 67.1649 66.4031 67.0937 66.739C67.3945 66.4521 67.7272 66.2008 68.0854 65.9898C68.832 65.5558 69.6569 65.2732 70.5128 65.1579C71.3688 65.0426 72.2391 65.0971 73.074 65.3181C74.6203 65.7501 75.9742 67.0449 75.8805 68.748L75.8668 68.8442C75.617 70.6671 75.3597 72.4651 75.2523 74.2643C75.1873 75.9149 75.1923 77.5969 76.0354 78.9391Z" fill="#3F9672"/>
  <path d="M89.4127 75.4156C89.3627 75.7353 89.279 76.0488 89.1629 76.3508C88.6458 77.6456 87.5791 78.7494 86.3788 79.4448C84.9149 80.3076 83.3212 80.3801 81.8124 80.1878C81.0629 80.0916 80.3073 79.9718 79.6316 79.6596C79.2595 79.4856 78.9192 79.2505 78.6249 78.9641C78.619 78.9638 78.6132 78.9623 78.608 78.9597C78.6027 78.9572 78.598 78.9536 78.5942 78.9491C78.5903 78.9447 78.5874 78.9396 78.5856 78.934C78.5838 78.9284 78.5831 78.9225 78.5836 78.9167C78.4182 78.7842 78.2704 78.6311 78.144 78.461C77.3617 77.4719 76.8715 76.2838 76.7288 75.031C76.4091 72.5138 77.3608 69.8268 79.318 67.8366C80.3859 66.7497 81.7108 65.9496 83.1701 65.5104C83.2754 65.468 83.3846 65.4358 83.496 65.4143H83.5435C84.4608 65.2143 85.4095 65.2062 86.3301 65.3906C86.4017 65.3947 86.4722 65.4107 86.5386 65.438C86.5674 65.4341 86.5967 65.4364 86.6245 65.4448C86.6523 65.4532 86.678 65.4675 86.6998 65.4867C87.7684 65.7751 88.6916 66.4502 89.2903 67.3808C89.9669 68.4678 90.1965 69.7744 89.931 71.0268C89.9017 71.1316 89.8385 71.2237 89.7513 71.2888C89.664 71.3538 89.5577 71.3882 89.4489 71.3864C86.5337 71.4825 83.596 71.5537 80.6695 71.5537C80.5285 72.3151 80.5331 73.0964 80.6832 73.8561C81.0142 75.6041 82.2383 76.9776 84.0007 77.4059C84.9015 77.6241 85.8491 77.5398 86.6973 77.1661C87.5429 76.7828 88.3085 76.1111 88.7132 75.2707C88.9168 74.8387 89.5651 75.0061 89.4127 75.4156ZM80.8206 70.8108L86.1802 70.7383C86.2709 70.0546 86.3126 69.3653 86.3051 68.6757C86.2901 67.9327 86.2089 67.1411 85.7855 66.5655C85.3171 65.9662 84.4878 65.8937 83.7358 66.302C82.8278 66.7815 82.1871 67.7642 81.7062 68.6282C81.3242 69.317 81.0268 70.0494 80.8206 70.8095V70.8108Z" fill="#3F9672"/>
  <path d="M40.2861 11.7206H41.3229V18.8775H44.7539V19.7516H40.2861V11.7206Z" fill="#3F9672"/>
  <path d="M51.5186 15.9821H48.396V18.8764H51.8746V19.7504H47.3594V11.7244H51.6959V12.5984H48.396V15.1343H51.5186V15.9821Z" fill="#3F9672"/>
  <path d="M56.3893 12.6008H53.9475V11.7206H59.8928V12.6008H57.4385V19.7466H56.3893V12.6008Z" fill="#3F9672"/>
  <path d="M71.4416 19.7466V16.3404L68.9036 11.7206H70.0826L71.2155 13.9356C71.5253 14.5424 71.7626 15.0306 72.0136 15.5912H72.0373C72.2634 15.0668 72.537 14.5424 72.8467 13.9356L74.0021 11.7206H75.1824L72.4895 16.3291V19.7466H71.4416Z" fill="#3F9672"/>
  <path d="M83.993 15.6499C83.993 18.4131 82.3131 19.8777 80.2635 19.8777C78.1401 19.8777 76.6538 18.2346 76.6538 15.8048C76.6538 13.2564 78.2388 11.5895 80.3834 11.5895C82.5692 11.5895 83.993 13.2689 83.993 15.6499ZM77.7616 15.7811C77.7616 17.4967 78.691 19.0274 80.3234 19.0274C81.9559 19.0274 82.8964 17.5154 82.8964 15.6924C82.8964 14.0967 82.0633 12.4298 80.3359 12.4298C78.6085 12.4298 77.7554 14.018 77.7554 15.7811H77.7616Z" fill="#3F9672"/>
  <path d="M87.8235 11.7206V16.4715C87.8235 18.2707 88.6216 19.0324 89.6971 19.0324C90.8886 19.0324 91.6505 18.2458 91.6505 16.4715V11.7206H92.6997V16.4003C92.6997 18.8651 91.4007 19.8777 89.6608 19.8777C88.0171 19.8777 86.7781 18.9375 86.7781 16.4478V11.7206H87.8235Z" fill="#3F9672"/>
  <path d="M95.949 11.8267C96.6058 11.7107 97.2718 11.6551 97.9387 11.6607C99.0466 11.6607 99.761 11.8629 100.262 12.3149C100.47 12.5095 100.633 12.7461 100.742 13.0091C100.851 13.272 100.902 13.5551 100.893 13.8394C100.893 14.8995 100.226 15.6025 99.3801 15.8884V15.9246C100.005 16.1381 100.369 16.71 100.559 17.5478C100.821 18.6716 101.013 19.4407 101.184 19.7504H100.106C99.9746 19.5244 99.796 18.8339 99.5699 17.8337C99.3314 16.7262 98.903 16.3092 97.9612 16.273H96.9832V19.7504H95.9465L95.949 11.8267ZM96.9832 15.4826H98.0436C99.1515 15.4826 99.8535 14.8746 99.8535 13.9581C99.8535 12.9217 99.1041 12.4685 98.0074 12.4598C97.6634 12.45 97.3195 12.4818 96.9832 12.5546V15.4826Z" fill="#3F9672"/>
  <path d="M118.385 19.74L120.012 23.0349L123.65 23.564L121.018 26.1288L121.639 29.7499L118.385 28.0403L115.131 29.7499L115.753 26.1288L113.12 23.564L116.758 23.0349L118.385 19.74Z" fill="white"/>
  <path d="M105.785 80.22L107.412 83.5149L111.049 84.044L108.418 86.6088L109.039 90.2298L105.785 88.5203L102.531 90.2298L103.153 86.6088L100.52 84.044L104.158 83.5149L105.785 80.22Z" fill="white"/>
  <path d="M122.43 59.22L125.308 65.0265L131.74 65.9589L127.086 70.4787L128.184 76.86L122.43 73.8473L116.676 76.86L117.776 70.4787L113.12 65.9589L119.554 65.0265L122.43 59.22Z" fill="white"/>
  <path d="M7.14014 24.78L8.22205 26.992L10.6401 27.3472L8.89046 29.0691L9.30331 31.5L7.14014 30.3524L4.97696 31.5L5.39046 29.0691L3.64014 27.3472L6.05888 26.992L7.14014 24.78Z" fill="white"/>
  <defs>
    <filter id="filter0_d_50_35" x="0" y="0" width="143.779" height="109.06" filterUnits="userSpaceOnUse" color-interpolation-filters="sRGB">
      <feFlood flood-opacity="0" result="BackgroundImageFix"/>
      <feColorMatrix in="SourceAlpha" type="matrix" values="0 0 0 0 0 0 0 0 0 0 0 0 0 0 0 0 0 0 127 0" result="hardAlpha"/>
      <feOffset dx="3.08" dy="6.3"/>
      <feComposite in2="hardAlpha" operator="out"/>
      <feColorMatrix type="matrix" values="0 0 0 0 0.0980392 0 0 0 0 0.0823529 0 0 0 0 0.290196 0 0 0 1 0"/>
      <feBlend mode="normal" in2="BackgroundImageFix" result="effect1_dropShadow_50_35"/>
      <feBlend mode="normal" in="SourceGraphic" in2="effect1_dropShadow_50_35" result="shape"/>
    </filter>
  </defs>
</svg>
