<svg width="381" height="278" viewBox="0 0 381 278" fill="none"
  xmlns="http://www.w3.org/2000/svg">
  <path d="M309.08 178.509L325.64 164.829C350.26 75.39 255.694 -53.4927 111.08 24.4288C107.72 27.5488 103.016 33.7887 111.08 33.7887C195.212 -3.91164 329.605 30.6837 301.88 170.589C300.534 174.951 302.622 182.583 309.08 178.509Z" fill="#2E115B"/>
  <path d="M73.2141 99.7484L56.6541 113.428C32.034 202.867 126.6 331.75 271.214 253.828C274.574 250.708 279.278 244.468 271.214 244.468C187.082 282.169 52.6894 247.573 80.4141 107.668C81.76 103.307 79.6723 95.6741 73.2141 99.7484Z" fill="#2E115B"/>
  <path d="M241.4 210.189C265.64 185.709 302.456 125.229 255.8 79.1487C254.84 75.7887 254.36 69.5007 260.12 71.2287C264.44 72.4287 274.808 76.1247 281.72 81.3087C308.905 113.555 308.768 199.883 241.4 210.189Z" fill="#5C21B5"/>
  <path d="M141.733 64.0287C117.493 88.5087 80.6768 148.989 127.333 195.069C128.293 198.429 128.773 204.717 123.013 202.989C118.693 201.789 108.325 198.093 101.413 192.909C74.2275 160.663 74.3651 74.3339 141.733 64.0287Z" fill="#5C21B5"/>
  <path d="M271.64 137.469C271.64 181.21 236.181 216.669 192.44 216.669C148.699 216.669 113.24 181.21 113.24 137.469C113.24 93.7278 148.699 58.2688 192.44 58.2688C236.181 58.2688 271.64 93.7278 271.64 137.469ZM132.993 137.469C132.993 170.3 159.608 196.916 192.44 196.916C225.272 196.916 251.887 170.3 251.887 137.469C251.887 104.637 225.272 78.0219 192.44 78.0219C159.608 78.0219 132.993 104.637 132.993 137.469Z" fill="#9D7AD3"/>
  <circle cx="193.16" cy="136.749" r="48.24" fill="#37146D"/>
  <path d="M358.76 141.789C327.766 188.401 237.283 256.994 111.08 210.909C171.505 280.264 367.687 232.891 380.36 125.949L340.04 84.9088C335.24 81.3088 326.216 77.2768 328.52 89.9488C330.68 96.4288 335.288 109.677 336.44 110.829C346.974 117.981 364.219 134.823 358.76 141.789Z" fill="#772594"/>
  <path d="M22.52 132.626C53.514 86.0139 143.997 17.4209 270.2 63.5058C209.775 -5.84943 13.5932 41.5236 0.920013 148.466L41.24 189.506C46.04 193.106 55.064 197.138 52.76 184.466C50.6 177.986 45.992 164.738 44.84 163.586C34.306 156.433 17.0609 139.592 22.52 132.626Z" fill="#772594"/>
  <path d="M337.88 125.949C339.015 125.949 340.138 126.228 341.186 126.771C342.235 127.314 343.187 128.109 343.989 129.112C344.792 130.115 345.428 131.305 345.862 132.616C346.297 133.926 346.52 135.33 346.52 136.749C346.52 138.167 346.297 139.571 345.862 140.882C345.428 142.192 344.792 143.383 343.989 144.386C343.187 145.388 342.235 146.184 341.186 146.727C340.138 147.269 339.015 147.549 337.88 147.549L337.88 136.749V125.949Z" fill="#FE5D45"/>
  <path d="M44.12 125.949C42.9854 125.949 41.8619 126.228 40.8136 126.771C39.7654 127.314 38.8129 128.109 38.0106 129.112C37.2083 130.115 36.5719 131.305 36.1377 132.616C35.7035 133.926 35.48 135.33 35.48 136.749C35.48 138.167 35.7035 139.571 36.1377 140.882C36.5719 142.192 37.2083 143.383 38.0106 144.386C38.8129 145.388 39.7654 146.184 40.8136 146.727C41.8619 147.269 42.9854 147.549 44.12 147.549L44.12 136.749V125.949Z" fill="#FE5D45"/>
</svg>
