<svg width="262" height="215" viewBox="0 0 262 215" fill="none"
  xmlns="http://www.w3.org/2000/svg">
  <g clip-path="url(#clip0_50_81)">
    <path d="M-44.8557 96.1492L-44.8545 96.1492C22.1564 94.0479 99.6643 111.345 158.132 145.202C166.401 149.987 176.82 144.415 177.422 134.918C177.422 134.918 177.422 134.918 177.422 134.918L177.864 127.885L177.865 127.882C178.043 125.143 177.332 122.42 175.838 120.115C153.899 86.3637 118.12 62.4746 79.2651 51.1579L79.5989 50.0118L79.2651 51.1579C42.6647 40.4966 -7.32803 40.3976 -47.0309 47.2659C-49.9987 47.7865 -52.6883 49.3316 -54.6295 51.6304C-56.5708 53.9294 -57.64 56.8359 -57.6507 59.8413C-57.6659 64.333 -57.7942 68.8619 -57.922 73.3725C-58.0143 76.6283 -58.1063 79.8746 -58.1552 83.0904L-58.1553 83.0918C-58.1837 84.8321 -57.8579 86.56 -57.1971 88.1709C-56.5363 89.7817 -55.5544 91.2421 -54.3108 92.4632C-53.0673 93.6843 -51.588 94.6408 -49.9626 95.2745C-48.3373 95.9081 -46.5999 96.2058 -44.8557 96.1492Z" fill="#FFADE3" stroke="#26103D" stroke-width="2.39955"/>
    <path d="M-46.3069 66.3471L-46.304 66.3466C24.2942 53.7982 108.058 79.2442 157.784 130.926C163.273 136.631 172.928 133.817 174.496 126.063C174.496 126.063 174.496 126.062 174.496 126.062L174.722 124.936L174.723 124.931C175.052 123.329 174.968 121.67 174.479 120.11C160.785 76.8494 119.904 46.8953 77.5358 28.8655L77.5357 28.8655C55.0332 19.2865 30.9123 12.1083 6.76819 14.2717L6.76805 14.2718C-12.0132 15.9526 -40.6874 22.5448 -57.7013 30.482C-57.7767 30.5172 -57.8246 30.5456 -57.8538 30.5657C-57.8504 30.622 -57.8364 30.7437 -57.7829 30.9838C-57.7714 31.0357 -57.7577 31.0929 -57.7428 31.1552C-57.5784 31.8431 -57.2694 33.1355 -58.1165 34.4245L-58.1171 34.4254C-58.7389 35.3696 -58.8871 36.5172 -58.7595 37.9121C-58.6702 38.8882 -58.467 39.8451 -58.2516 40.8596C-58.1466 41.3541 -58.0387 41.8623 -57.9397 42.393C-57.0897 46.9282 -57.4505 51.4476 -57.8522 55.7959C-57.9901 57.3013 -57.7775 58.8182 -57.2311 60.2283C-56.6846 61.6383 -55.819 62.9035 -54.7016 63.9251C-53.5841 64.9466 -52.245 65.6968 -50.7888 66.117C-49.3325 66.5372 -47.7987 66.616 -46.3069 66.3471ZM-57.8938 30.5993C-57.8931 30.5993 -57.8893 30.5959 -57.8841 30.5888C-57.8918 30.5956 -57.8944 30.5992 -57.8938 30.5993Z" fill="#FFF0E9" stroke="#26103D" stroke-width="2.39955"/>
    <path d="M188.205 107.867L188.206 107.865C188.424 107.199 188.506 106.497 188.446 105.799C188.387 105.101 188.188 104.423 187.86 103.804C178.495 86.2354 162.953 70.7505 148.39 56.2408C146.442 54.2993 144.51 52.3752 142.614 50.466C110.973 18.6141 72.0495 5.93838 27.0345 2.56918L27.1181 1.45209L27.0344 2.56917C0.0735931 0.54873 -27.2507 0.130985 -53.4907 5.79415C-54.6949 6.05474 -55.77 6.7258 -56.5314 7.69132C-57.2928 8.65678 -57.6931 9.85643 -57.6639 11.084L-57.6639 11.0858C-57.5746 15.0941 -57.6979 19.0938 -57.8483 23.0642C-57.8717 23.6827 -57.8958 24.3004 -57.9198 24.9172C-58.0504 28.2699 -58.1801 31.5994 -58.2008 34.93L-58.2008 34.9322C-58.2074 35.7614 -58.0173 36.5806 -57.6459 37.3227C-57.2744 38.0649 -56.7323 38.709 -56.0634 39.2023C-55.3944 39.6957 -54.6178 40.0242 -53.7969 40.1608C-52.976 40.2974 -52.1344 40.2383 -51.3409 39.9882L-51.3405 39.9881C-9.37642 26.7785 39.4357 28.193 80.1337 44.1467L79.6958 45.2637L80.1338 44.1467C118.938 59.3596 152.401 87.6549 174.06 123.168C176.41 127.019 182.198 126.339 183.587 122.06L183.587 122.059L188.205 107.867Z" fill="#FED33D" stroke="#26103D" stroke-width="2.39955"/>
    <path d="M152.952 120.739L152.951 120.74C152.75 120.93 152.486 121.1 152.243 121.242C151.982 121.395 151.664 121.563 151.303 121.74C150.582 122.096 149.638 122.519 148.526 122.992C146.299 123.94 143.34 125.114 140.003 126.395C133.326 128.958 125.093 131.969 118.075 134.504L118.074 134.504C117.465 134.724 116.934 135.118 116.548 135.636C116.161 136.154 115.936 136.774 115.9 137.418C115.864 138.063 116.019 138.703 116.345 139.261C116.671 139.819 117.154 140.269 117.735 140.555L117.735 140.555C124.728 144.001 132.918 148.084 139.477 151.506C142.754 153.216 145.636 154.767 147.761 155.994C148.822 156.606 149.711 157.147 150.371 157.593C150.7 157.815 150.99 158.026 151.223 158.219C151.42 158.382 151.699 158.63 151.873 158.935L151.874 158.937C151.986 159.133 152.042 159.34 152.073 159.466C152.109 159.615 152.138 159.781 152.164 159.952C152.214 160.295 152.257 160.729 152.294 161.233C152.368 162.246 152.426 163.614 152.469 165.257C152.557 168.547 152.59 172.993 152.588 178.01C152.585 188.047 152.44 200.405 152.299 210.444L152.299 210.445C152.289 211.083 152.466 211.71 152.807 212.25C153.148 212.79 153.64 213.22 154.222 213.487C154.804 213.754 155.452 213.846 156.086 213.752C156.719 213.659 157.311 213.384 157.79 212.961C168.799 203.187 178.675 192.213 187.235 180.245C188.057 179.085 189.282 178.273 190.671 177.967C192.062 177.661 193.516 177.884 194.751 178.592L194.752 178.593C209.421 187.04 224.833 194.13 240.796 199.775C241.381 199.98 242.011 200.017 242.616 199.882C243.221 199.746 243.775 199.444 244.215 199.009C244.655 198.574 244.963 198.025 245.105 197.424C245.247 196.823 245.216 196.195 245.017 195.611L245.016 195.609L232.8 159.657L233.868 159.294L232.8 159.657C232.503 158.782 232.423 157.848 232.567 156.935C232.712 156.023 233.077 155.159 233.63 154.419L233.631 154.417L259.203 120.314L259.205 120.312C259.585 119.807 259.812 119.204 259.859 118.575C259.906 117.946 259.771 117.316 259.469 116.761C259.168 116.206 258.713 115.748 258.158 115.443C257.603 115.138 256.972 114.998 256.339 115.041L256.338 115.041L218.679 117.521C218.678 117.521 218.678 117.521 218.677 117.522C217.71 117.589 216.742 117.409 215.865 116.998C214.986 116.588 214.227 115.96 213.66 115.174L214.633 114.471L213.658 115.171L179.832 68.064C179.832 68.0635 179.831 68.0629 179.831 68.0624C179.482 67.581 179.01 67.2023 178.463 66.9665C177.915 66.7306 177.314 66.6468 176.722 66.7243C176.13 66.8018 175.571 67.0376 175.103 67.4064C174.636 67.775 174.277 68.2627 174.065 68.8178C170.43 78.4403 165.698 90.8661 161.637 101.114C159.607 106.236 157.74 110.824 156.26 114.248C155.521 115.958 154.873 117.391 154.345 118.46C154.082 118.993 153.841 119.45 153.629 119.812C153.439 120.136 153.208 120.497 152.952 120.739Z" fill="#5C59ED" stroke="#26103D" stroke-width="2.39955"/>
    <path d="M66.2068 169.073C72.3013 170.601 76.47 172.325 79.48 175.339C82.4896 178.353 84.2089 182.524 85.7378 188.615C85.7464 188.646 85.7649 188.673 85.7906 188.693C85.817 188.714 85.8495 188.725 85.883 188.725C85.9165 188.725 85.949 188.714 85.9754 188.693C86.0011 188.673 86.0196 188.646 86.0282 188.615C87.5574 182.523 89.2818 178.352 92.2966 175.338C95.3114 172.325 99.4847 170.601 105.579 169.073C105.61 169.064 105.638 169.046 105.658 169.02C105.678 168.994 105.689 168.962 105.689 168.928C105.689 168.895 105.678 168.863 105.658 168.837C105.638 168.811 105.61 168.793 105.579 168.784C99.4847 167.256 95.3114 165.532 92.2966 162.519C89.2818 159.505 87.5574 155.334 86.0282 149.242C86.0196 149.211 86.0011 149.184 85.9754 149.164C85.949 149.143 85.9165 149.132 85.883 149.132C85.8495 149.132 85.817 149.143 85.7906 149.164C85.7649 149.184 85.7464 149.211 85.7378 149.242C84.2089 155.333 82.4896 159.504 79.48 162.518C76.47 165.532 72.3013 167.255 66.2068 168.784C66.1754 168.793 66.1477 168.811 66.1279 168.837C66.1076 168.863 66.0966 168.895 66.0966 168.928C66.0966 168.962 66.1076 168.994 66.1279 169.02C66.1477 169.046 66.1754 169.064 66.2068 169.073Z" fill="#FED33D" stroke="#26103D" stroke-width="2.1596"/>
  </g>
  <defs>
    <clipPath id="clip0_50_81">
      <rect width="321.06" height="215" fill="white" transform="matrix(-1 0 0 1 261.06 0)"/>
    </clipPath>
  </defs>
</svg>
