<svg width="241" height="317" viewBox="0 0 241 317" fill="none" xmlns="http://www.w3.org/2000/svg">
<g clip-path="url(#clip0_15_124)">
<path d="M90.9002 132.328L91.0535 133.567L91.2092 134.825L92.5569 145.715L85.02 137.739C53.2047 104.074 18.8811 69.6973 -25.2681 62.7603L-25.2764 62.759L-25.2846 62.7577C-28.3458 62.2621 -31.4808 62.0751 -34.1951 62.525C-36.8828 62.9705 -38.8606 63.982 -40.1326 65.6371L-40.1346 65.6398C-41.6286 67.58 -41.9753 70.1253 -41.2419 73.302C-40.5018 76.5077 -38.738 79.9229 -36.6732 82.9221C-13.8532 116.013 25.0159 134.262 63.858 148.636L61.4929 155.435C38.8879 148.067 15.6591 142.771 -7.90637 139.612C-31.9533 136.388 -57.4687 136.477 -74.7823 151.011C-77.5877 153.366 -80.0627 156.42 -81.4484 159.566C-82.8243 162.691 -83.0167 165.607 -81.87 168.132L-81.869 168.134C-80.948 170.165 -79.2467 171.786 -76.8466 173.137C-74.4232 174.501 -71.5032 175.468 -68.4745 176.274L-68.4703 176.275C-26.8185 187.411 19.1048 181.833 56.9433 161.121L61.1352 166.904C34.2812 192.101 15.5478 224.727 7.32674 260.616C5.84425 267.149 5.30834 274.57 6.57744 280.825C7.84068 287.052 10.7424 291.588 15.7341 293.608L15.7348 293.608C20.4028 295.498 25.3965 294.518 30.4194 291.446C35.4677 288.359 40.1293 283.376 43.5997 278.224C61.0525 252.261 68.1969 220.977 73.8442 189.262C74.4477 184.902 75.2009 180.554 76.1043 176.226L83.1773 177.566C82.4507 181.834 81.7155 186.133 80.9489 190.447C76.4356 223.308 80.7466 256.863 93.5521 287.63C96.8748 295.545 100.685 302.848 106.61 307.872C112.527 312.889 120.748 314.911 126.952 312.03L126.954 312.029C130.981 310.163 133.829 306.623 135.739 301.971C137.658 297.298 138.518 291.746 138.666 286.402L138.666 286.401C139.629 252.042 123.852 219.929 105.654 189.178C102.325 184.389 99.3142 179.408 96.6603 174.287L102.925 170.748C105.879 175.564 108.857 180.45 111.794 185.407C135.161 218.845 174.466 241.802 213.941 236.645L213.951 236.643C221.497 235.678 228.254 233.291 231.299 228.199C233.85 223.934 233.387 218.984 230.637 213.658C227.874 208.306 223.038 203.135 218.04 199.232C189.836 177.284 155.888 163.952 120.281 160.842L120.548 153.656C155.176 153.211 188.888 142.47 217.387 122.801C224.849 117.625 231.524 111.956 234.988 104.558C238.451 97.1626 237.654 88.0459 232.396 83.2532C227.727 79.0006 220.316 78.311 212.563 79.1676C175.649 83.2504 145.831 110.525 117.983 137.526L112.632 132.736C136.925 101.41 154.348 65.3227 163.767 26.8211C164.817 22.5175 165.48 17.897 165.077 13.8846C164.677 9.90491 163.294 6.98252 160.683 5.22788L160.683 5.22757C157.912 3.3647 154.487 3.30963 150.557 4.82573C146.598 6.35329 142.607 9.33022 139.469 12.618L139.468 12.6188C110.455 42.9947 105.344 88.6393 101.791 132.21L94.6255 132.321C90.1941 92.9974 84.8552 52.5895 60.6921 23.0676L60.6919 23.0674C58.6289 20.5464 55.9735 18.192 53.3469 16.905C50.7507 15.6328 48.7413 15.6261 47.1406 16.6236C45.0963 17.9094 43.9928 20.854 43.3514 25.0351C43.3514 25.0354 43.3514 25.0353 43.3513 25.0357M90.9002 132.328L62.8872 105.039C46.0625 80.8995 35.4265 53.0132 39.793 24.4899M90.9002 132.328L90.013 131.45C60.8542 102.595 37.3644 64.1483 43.3513 25.0357M90.9002 132.328L43.3513 25.0357M43.3513 25.0357L39.793 24.4899M39.793 24.4899C40.4291 20.3423 41.6733 15.8061 45.2285 13.5733C51.3141 9.77192 58.9332 15.2338 63.478 20.7875M39.793 24.4899L63.478 20.7875M63.478 20.7875C84.742 46.7673 91.7822 80.7734 96.1289 114.488L63.478 20.7875Z" fill="#5C59ED" stroke="#3B0F46" stroke-width="7.2"/>
<path d="M120.303 158.52C120.303 182.294 101.025 201.568 77.2405 201.568C53.4565 201.568 34.1777 182.294 34.1777 158.52C34.1777 134.746 53.4565 115.472 77.2405 115.472C101.025 115.472 120.303 134.746 120.303 158.52Z" fill="#FFADE3" stroke="#3B0F46" stroke-width="7.2"/>
</g>
<defs>
<clipPath id="clip0_15_124">
<rect width="326.88" height="316.8" fill="white" transform="translate(-86.2 0.119995)"/>
</clipPath>
</defs>
</svg>
