<svg width="79" height="96" viewBox="0 0 79 96" fill="none" xmlns="http://www.w3.org/2000/svg">
<g filter="url(#filter0_d_15_120)">
<mask id="path-1-inside-1_15_120" fill="white">
<path d="M73.0179 48.4377L69.3686 50.6814C68.881 50.9759 68.4572 51.369 68.1231 51.8369C67.7891 52.3047 67.5518 52.8374 67.4258 53.4023C67.2998 53.9672 67.2878 54.5523 67.3904 55.1221C67.493 55.692 67.708 56.2345 68.0225 56.7163L70.3537 60.3514C70.7611 60.9686 71.0032 61.6842 71.056 62.4271C71.1087 63.1699 70.9703 63.914 70.6544 64.585C70.3385 65.256 69.8562 65.8305 69.2556 66.2513C68.655 66.672 67.9572 66.9242 67.2317 66.9827L63.0064 67.3733C62.4417 67.4217 61.8927 67.5875 61.3929 67.8607C60.8931 68.1339 60.453 68.5086 60.0997 68.9619C59.7463 69.4152 59.4871 69.9376 59.3379 70.497C59.1888 71.0564 59.1528 71.6411 59.2323 72.2153L59.7943 76.525C59.9002 77.2617 59.8156 78.0141 59.5488 78.7069C59.2821 79.3998 58.8425 80.009 58.2739 80.4738C57.7053 80.9386 57.0275 81.2428 56.3082 81.3559C55.5889 81.469 54.8532 81.3872 54.1745 81.1186L50.1852 79.5993C49.6565 79.3933 49.0925 79.2996 48.5273 79.3242C47.9621 79.3488 47.4077 79.4911 46.898 79.7423C46.3883 79.9935 45.934 80.3482 45.5628 80.7851C45.1916 81.2219 44.9113 81.7317 44.7391 82.2831L43.4138 86.4151C43.1962 87.125 42.8008 87.7642 42.2668 88.2691C41.7327 88.774 41.0787 89.127 40.37 89.2928C39.6613 89.4587 38.9225 89.4316 38.2272 89.2145C37.5318 88.9974 36.9042 88.5977 36.4066 88.0552L33.465 84.9171C33.0759 84.496 32.6068 84.1604 32.0867 83.9312C31.5666 83.7019 31.0063 83.5836 30.44 83.5836C29.8737 83.5836 29.3134 83.7019 28.7933 83.9312C28.2731 84.1604 27.8041 84.496 27.415 84.9171L24.4733 88.0552C23.9758 88.5977 23.3482 88.9974 22.6528 89.2145C21.9574 89.4316 21.2187 89.4587 20.51 89.2928C19.8012 89.127 19.1472 88.774 18.6132 88.2691C18.0792 87.7642 17.6838 87.125 17.4662 86.4151L16.1409 82.2831C15.9686 81.7317 15.6884 81.2219 15.3172 80.7851C14.946 80.3482 14.4917 79.9935 13.982 79.7423C13.4723 79.4911 12.9179 79.3488 12.3527 79.3242C11.7875 79.2996 11.2234 79.3933 10.6948 79.5993L6.70548 81.1186C6.02673 81.3872 5.29105 81.469 4.57177 81.3559C3.85249 81.2428 3.17469 80.9386 2.60609 80.4738C2.03749 80.009 1.59792 79.3998 1.33115 78.7069C1.06438 78.0141 0.979732 77.2617 1.08572 76.525L1.64773 72.2153C1.72714 71.6411 1.69118 71.0564 1.54203 70.497C1.39288 69.9376 1.13367 69.4152 0.780319 68.9619C0.426969 68.5086 -0.0130796 68.1339 -0.512915 67.8607C-1.01275 67.5875 -1.56178 67.4217 -2.12645 67.3733L-6.35169 66.9756C-7.07724 66.9171 -7.77506 66.6649 -8.37564 66.2442C-8.97621 65.8234 -9.45849 65.2488 -9.77439 64.5779C-10.0903 63.9069 -10.2288 63.1628 -10.176 62.42C-10.1232 61.6771 -9.88114 60.9614 -9.47374 60.3443L-7.14253 56.7163C-6.82804 56.2345 -6.61302 55.692 -6.5104 55.1221C-6.40778 54.5523 -6.41981 53.9672 -6.5458 53.4023C-6.67179 52.8374 -6.9091 52.3047 -7.24315 51.8369C-7.57719 51.369 -8.00099 50.9759 -8.48861 50.6814L-12.138 48.4377C-12.7655 48.0623 -13.286 47.5253 -13.6478 46.8801C-14.0096 46.2349 -14.2 45.5039 -14.2 44.76C-14.2 44.0161 -14.0096 43.2852 -13.6478 42.6399C-13.286 41.9947 -12.7655 41.4577 -12.138 41.0823L-8.48861 38.8386C-8.00099 38.5442 -7.57719 38.151 -7.24315 37.6832C-6.9091 37.2153 -6.67179 36.6826 -6.5458 36.1178C-6.41981 35.5529 -6.40778 34.9677 -6.5104 34.3979C-6.61302 33.8281 -6.82804 33.2855 -7.14253 32.8037L-9.47374 29.1686C-9.88114 28.5515 -10.1232 27.8358 -10.176 27.0929C-10.2288 26.3501 -10.0903 25.606 -9.77439 24.9351C-9.45849 24.2641 -8.97621 23.6895 -8.37564 23.2688C-7.77506 22.848 -7.07724 22.5959 -6.35169 22.5373L-2.12645 22.1467C-1.56178 22.0984 -1.01275 21.9325 -0.512915 21.6593C-0.0130796 21.3861 0.426969 21.0114 0.780319 20.5581C1.13367 20.1048 1.39288 19.5825 1.54203 19.023C1.69118 18.4636 1.72714 17.8789 1.64773 17.3047L1.08572 12.995C0.979732 12.2583 1.06438 11.506 1.33115 10.8131C1.59792 10.1202 2.03749 9.51103 2.60609 9.04625C3.17469 8.58146 3.85249 8.27727 4.57177 8.16413C5.29105 8.051 6.02673 8.13284 6.70548 8.40143L10.6948 9.92074C11.2234 10.1267 11.7875 10.2204 12.3527 10.1958C12.9179 10.1712 13.4723 10.0289 13.982 9.77773C14.4917 9.52657 14.946 9.17178 15.3172 8.73493C15.6884 8.29809 15.9686 7.78836 16.1409 7.23695L17.4662 3.10493C17.6838 2.39504 18.0792 1.75578 18.6132 1.25091C19.1472 0.746048 19.8012 0.393062 20.51 0.227182C21.2187 0.0613033 21.9574 0.0884096 22.6528 0.305531C23.3482 0.522652 23.9758 0.922301 24.4733 1.46481L27.415 4.60291C27.8041 5.02405 28.2731 5.35959 28.7933 5.58886C29.3134 5.81813 29.8737 5.9364 30.44 5.9364C31.0063 5.9364 31.5666 5.81813 32.0867 5.58886C32.6068 5.35959 33.0759 5.02405 33.465 4.60291L36.4066 1.46481C36.9042 0.922301 37.5318 0.522652 38.2272 0.305531C38.9225 0.0884096 39.6613 0.0613033 40.37 0.227182C41.0787 0.393062 41.7327 0.746048 42.2668 1.25091C42.8008 1.75578 43.1962 2.39504 43.4138 3.10493L44.7391 7.23695C44.9113 7.78836 45.1916 8.29809 45.5628 8.73493C45.934 9.17178 46.3883 9.52657 46.898 9.77773C47.4077 10.0289 47.9621 10.1712 48.5273 10.1958C49.0925 10.2204 49.6565 10.1267 50.1852 9.92074L54.1745 8.40143C54.8532 8.13284 55.5889 8.051 56.3082 8.16413C57.0275 8.27727 57.7053 8.58146 58.2739 9.04625C58.8425 9.51103 59.2821 10.1202 59.5488 10.8131C59.8156 11.506 59.9002 12.2583 59.7943 12.995L59.2323 17.3047C59.1528 17.8789 59.1888 18.4636 59.3379 19.023C59.4871 19.5825 59.7463 20.1048 60.0997 20.5581C60.453 21.0114 60.8931 21.3861 61.3929 21.6593C61.8927 21.9325 62.4417 22.0984 63.0064 22.1467L67.2317 22.5444C67.9572 22.603 68.655 22.8552 69.2556 23.2759C69.8562 23.6966 70.3385 24.2712 70.6544 24.9422C70.9703 25.6131 71.1087 26.3572 71.056 27.1C71.0032 27.8429 70.7611 28.5586 70.3537 29.1758L68.0225 32.8037C67.708 33.2855 67.493 33.8281 67.3904 34.3979C67.2878 34.9677 67.2998 35.5529 67.4258 36.1178C67.5518 36.6826 67.7891 37.2153 68.1231 37.6832C68.4572 38.151 68.881 38.5442 69.3686 38.8386L73.0179 41.0823C73.6455 41.4577 74.166 41.9947 74.5278 42.6399C74.8896 43.2852 75.08 44.0161 75.08 44.76C75.08 45.5039 74.8896 46.2349 74.5278 46.8801C74.166 47.5253 73.6455 48.0623 73.0179 48.4377Z"/>
</mask>
<path d="M73.0179 48.4377L69.3686 50.6814C68.881 50.9759 68.4572 51.369 68.1231 51.8369C67.7891 52.3047 67.5518 52.8374 67.4258 53.4023C67.2998 53.9672 67.2878 54.5523 67.3904 55.1221C67.493 55.692 67.708 56.2345 68.0225 56.7163L70.3537 60.3514C70.7611 60.9686 71.0032 61.6842 71.056 62.4271C71.1087 63.1699 70.9703 63.914 70.6544 64.585C70.3385 65.256 69.8562 65.8305 69.2556 66.2513C68.655 66.672 67.9572 66.9242 67.2317 66.9827L63.0064 67.3733C62.4417 67.4217 61.8927 67.5875 61.3929 67.8607C60.8931 68.1339 60.453 68.5086 60.0997 68.9619C59.7463 69.4152 59.4871 69.9376 59.3379 70.497C59.1888 71.0564 59.1528 71.6411 59.2323 72.2153L59.7943 76.525C59.9002 77.2617 59.8156 78.0141 59.5488 78.7069C59.2821 79.3998 58.8425 80.009 58.2739 80.4738C57.7053 80.9386 57.0275 81.2428 56.3082 81.3559C55.5889 81.469 54.8532 81.3872 54.1745 81.1186L50.1852 79.5993C49.6565 79.3933 49.0925 79.2996 48.5273 79.3242C47.9621 79.3488 47.4077 79.4911 46.898 79.7423C46.3883 79.9935 45.934 80.3482 45.5628 80.7851C45.1916 81.2219 44.9113 81.7317 44.7391 82.2831L43.4138 86.4151C43.1962 87.125 42.8008 87.7642 42.2668 88.2691C41.7327 88.774 41.0787 89.127 40.37 89.2928C39.6613 89.4587 38.9225 89.4316 38.2272 89.2145C37.5318 88.9974 36.9042 88.5977 36.4066 88.0552L33.465 84.9171C33.0759 84.496 32.6068 84.1604 32.0867 83.9312C31.5666 83.7019 31.0063 83.5836 30.44 83.5836C29.8737 83.5836 29.3134 83.7019 28.7933 83.9312C28.2731 84.1604 27.8041 84.496 27.415 84.9171L24.4733 88.0552C23.9758 88.5977 23.3482 88.9974 22.6528 89.2145C21.9574 89.4316 21.2187 89.4587 20.51 89.2928C19.8012 89.127 19.1472 88.774 18.6132 88.2691C18.0792 87.7642 17.6838 87.125 17.4662 86.4151L16.1409 82.2831C15.9686 81.7317 15.6884 81.2219 15.3172 80.7851C14.946 80.3482 14.4917 79.9935 13.982 79.7423C13.4723 79.4911 12.9179 79.3488 12.3527 79.3242C11.7875 79.2996 11.2234 79.3933 10.6948 79.5993L6.70548 81.1186C6.02673 81.3872 5.29105 81.469 4.57177 81.3559C3.85249 81.2428 3.17469 80.9386 2.60609 80.4738C2.03749 80.009 1.59792 79.3998 1.33115 78.7069C1.06438 78.0141 0.979732 77.2617 1.08572 76.525L1.64773 72.2153C1.72714 71.6411 1.69118 71.0564 1.54203 70.497C1.39288 69.9376 1.13367 69.4152 0.780319 68.9619C0.426969 68.5086 -0.0130796 68.1339 -0.512915 67.8607C-1.01275 67.5875 -1.56178 67.4217 -2.12645 67.3733L-6.35169 66.9756C-7.07724 66.9171 -7.77506 66.6649 -8.37564 66.2442C-8.97621 65.8234 -9.45849 65.2488 -9.77439 64.5779C-10.0903 63.9069 -10.2288 63.1628 -10.176 62.42C-10.1232 61.6771 -9.88114 60.9614 -9.47374 60.3443L-7.14253 56.7163C-6.82804 56.2345 -6.61302 55.692 -6.5104 55.1221C-6.40778 54.5523 -6.41981 53.9672 -6.5458 53.4023C-6.67179 52.8374 -6.9091 52.3047 -7.24315 51.8369C-7.57719 51.369 -8.00099 50.9759 -8.48861 50.6814L-12.138 48.4377C-12.7655 48.0623 -13.286 47.5253 -13.6478 46.8801C-14.0096 46.2349 -14.2 45.5039 -14.2 44.76C-14.2 44.0161 -14.0096 43.2852 -13.6478 42.6399C-13.286 41.9947 -12.7655 41.4577 -12.138 41.0823L-8.48861 38.8386C-8.00099 38.5442 -7.57719 38.151 -7.24315 37.6832C-6.9091 37.2153 -6.67179 36.6826 -6.5458 36.1178C-6.41981 35.5529 -6.40778 34.9677 -6.5104 34.3979C-6.61302 33.8281 -6.82804 33.2855 -7.14253 32.8037L-9.47374 29.1686C-9.88114 28.5515 -10.1232 27.8358 -10.176 27.0929C-10.2288 26.3501 -10.0903 25.606 -9.77439 24.9351C-9.45849 24.2641 -8.97621 23.6895 -8.37564 23.2688C-7.77506 22.848 -7.07724 22.5959 -6.35169 22.5373L-2.12645 22.1467C-1.56178 22.0984 -1.01275 21.9325 -0.512915 21.6593C-0.0130796 21.3861 0.426969 21.0114 0.780319 20.5581C1.13367 20.1048 1.39288 19.5825 1.54203 19.023C1.69118 18.4636 1.72714 17.8789 1.64773 17.3047L1.08572 12.995C0.979732 12.2583 1.06438 11.506 1.33115 10.8131C1.59792 10.1202 2.03749 9.51103 2.60609 9.04625C3.17469 8.58146 3.85249 8.27727 4.57177 8.16413C5.29105 8.051 6.02673 8.13284 6.70548 8.40143L10.6948 9.92074C11.2234 10.1267 11.7875 10.2204 12.3527 10.1958C12.9179 10.1712 13.4723 10.0289 13.982 9.77773C14.4917 9.52657 14.946 9.17178 15.3172 8.73493C15.6884 8.29809 15.9686 7.78836 16.1409 7.23695L17.4662 3.10493C17.6838 2.39504 18.0792 1.75578 18.6132 1.25091C19.1472 0.746048 19.8012 0.393062 20.51 0.227182C21.2187 0.0613033 21.9574 0.0884096 22.6528 0.305531C23.3482 0.522652 23.9758 0.922301 24.4733 1.46481L27.415 4.60291C27.8041 5.02405 28.2731 5.35959 28.7933 5.58886C29.3134 5.81813 29.8737 5.9364 30.44 5.9364C31.0063 5.9364 31.5666 5.81813 32.0867 5.58886C32.6068 5.35959 33.0759 5.02405 33.465 4.60291L36.4066 1.46481C36.9042 0.922301 37.5318 0.522652 38.2272 0.305531C38.9225 0.0884096 39.6613 0.0613033 40.37 0.227182C41.0787 0.393062 41.7327 0.746048 42.2668 1.25091C42.8008 1.75578 43.1962 2.39504 43.4138 3.10493L44.7391 7.23695C44.9113 7.78836 45.1916 8.29809 45.5628 8.73493C45.934 9.17178 46.3883 9.52657 46.898 9.77773C47.4077 10.0289 47.9621 10.1712 48.5273 10.1958C49.0925 10.2204 49.6565 10.1267 50.1852 9.92074L54.1745 8.40143C54.8532 8.13284 55.5889 8.051 56.3082 8.16413C57.0275 8.27727 57.7053 8.58146 58.2739 9.04625C58.8425 9.51103 59.2821 10.1202 59.5488 10.8131C59.8156 11.506 59.9002 12.2583 59.7943 12.995L59.2323 17.3047C59.1528 17.8789 59.1888 18.4636 59.3379 19.023C59.4871 19.5825 59.7463 20.1048 60.0997 20.5581C60.453 21.0114 60.8931 21.3861 61.3929 21.6593C61.8927 21.9325 62.4417 22.0984 63.0064 22.1467L67.2317 22.5444C67.9572 22.603 68.655 22.8552 69.2556 23.2759C69.8562 23.6966 70.3385 24.2712 70.6544 24.9422C70.9703 25.6131 71.1087 26.3572 71.056 27.1C71.0032 27.8429 70.7611 28.5586 70.3537 29.1758L68.0225 32.8037C67.708 33.2855 67.493 33.8281 67.3904 34.3979C67.2878 34.9677 67.2998 35.5529 67.4258 36.1178C67.5518 36.6826 67.7891 37.2153 68.1231 37.6832C68.4572 38.151 68.881 38.5442 69.3686 38.8386L73.0179 41.0823C73.6455 41.4577 74.166 41.9947 74.5278 42.6399C74.8896 43.2852 75.08 44.0161 75.08 44.76C75.08 45.5039 74.8896 46.2349 74.5278 46.8801C74.166 47.5253 73.6455 48.0623 73.0179 48.4377Z" fill="#E681FF"/>
<path d="M73.0179 48.4377L69.3686 50.6814C68.881 50.9759 68.4572 51.369 68.1231 51.8369C67.7891 52.3047 67.5518 52.8374 67.4258 53.4023C67.2998 53.9672 67.2878 54.5523 67.3904 55.1221C67.493 55.692 67.708 56.2345 68.0225 56.7163L70.3537 60.3514C70.7611 60.9686 71.0032 61.6842 71.056 62.4271C71.1087 63.1699 70.9703 63.914 70.6544 64.585C70.3385 65.256 69.8562 65.8305 69.2556 66.2513C68.655 66.672 67.9572 66.9242 67.2317 66.9827L63.0064 67.3733C62.4417 67.4217 61.8927 67.5875 61.3929 67.8607C60.8931 68.1339 60.453 68.5086 60.0997 68.9619C59.7463 69.4152 59.4871 69.9376 59.3379 70.497C59.1888 71.0564 59.1528 71.6411 59.2323 72.2153L59.7943 76.525C59.9002 77.2617 59.8156 78.0141 59.5488 78.7069C59.2821 79.3998 58.8425 80.009 58.2739 80.4738C57.7053 80.9386 57.0275 81.2428 56.3082 81.3559C55.5889 81.469 54.8532 81.3872 54.1745 81.1186L50.1852 79.5993C49.6565 79.3933 49.0925 79.2996 48.5273 79.3242C47.9621 79.3488 47.4077 79.4911 46.898 79.7423C46.3883 79.9935 45.934 80.3482 45.5628 80.7851C45.1916 81.2219 44.9113 81.7317 44.7391 82.2831L43.4138 86.4151C43.1962 87.125 42.8008 87.7642 42.2668 88.2691C41.7327 88.774 41.0787 89.127 40.37 89.2928C39.6613 89.4587 38.9225 89.4316 38.2272 89.2145C37.5318 88.9974 36.9042 88.5977 36.4066 88.0552L33.465 84.9171C33.0759 84.496 32.6068 84.1604 32.0867 83.9312C31.5666 83.7019 31.0063 83.5836 30.44 83.5836C29.8737 83.5836 29.3134 83.7019 28.7933 83.9312C28.2731 84.1604 27.8041 84.496 27.415 84.9171L24.4733 88.0552C23.9758 88.5977 23.3482 88.9974 22.6528 89.2145C21.9574 89.4316 21.2187 89.4587 20.51 89.2928C19.8012 89.127 19.1472 88.774 18.6132 88.2691C18.0792 87.7642 17.6838 87.125 17.4662 86.4151L16.1409 82.2831C15.9686 81.7317 15.6884 81.2219 15.3172 80.7851C14.946 80.3482 14.4917 79.9935 13.982 79.7423C13.4723 79.4911 12.9179 79.3488 12.3527 79.3242C11.7875 79.2996 11.2234 79.3933 10.6948 79.5993L6.70548 81.1186C6.02673 81.3872 5.29105 81.469 4.57177 81.3559C3.85249 81.2428 3.17469 80.9386 2.60609 80.4738C2.03749 80.009 1.59792 79.3998 1.33115 78.7069C1.06438 78.0141 0.979732 77.2617 1.08572 76.525L1.64773 72.2153C1.72714 71.6411 1.69118 71.0564 1.54203 70.497C1.39288 69.9376 1.13367 69.4152 0.780319 68.9619C0.426969 68.5086 -0.0130796 68.1339 -0.512915 67.8607C-1.01275 67.5875 -1.56178 67.4217 -2.12645 67.3733L-6.35169 66.9756C-7.07724 66.9171 -7.77506 66.6649 -8.37564 66.2442C-8.97621 65.8234 -9.45849 65.2488 -9.77439 64.5779C-10.0903 63.9069 -10.2288 63.1628 -10.176 62.42C-10.1232 61.6771 -9.88114 60.9614 -9.47374 60.3443L-7.14253 56.7163C-6.82804 56.2345 -6.61302 55.692 -6.5104 55.1221C-6.40778 54.5523 -6.41981 53.9672 -6.5458 53.4023C-6.67179 52.8374 -6.9091 52.3047 -7.24315 51.8369C-7.57719 51.369 -8.00099 50.9759 -8.48861 50.6814L-12.138 48.4377C-12.7655 48.0623 -13.286 47.5253 -13.6478 46.8801C-14.0096 46.2349 -14.2 45.5039 -14.2 44.76C-14.2 44.0161 -14.0096 43.2852 -13.6478 42.6399C-13.286 41.9947 -12.7655 41.4577 -12.138 41.0823L-8.48861 38.8386C-8.00099 38.5442 -7.57719 38.151 -7.24315 37.6832C-6.9091 37.2153 -6.67179 36.6826 -6.5458 36.1178C-6.41981 35.5529 -6.40778 34.9677 -6.5104 34.3979C-6.61302 33.8281 -6.82804 33.2855 -7.14253 32.8037L-9.47374 29.1686C-9.88114 28.5515 -10.1232 27.8358 -10.176 27.0929C-10.2288 26.3501 -10.0903 25.606 -9.77439 24.9351C-9.45849 24.2641 -8.97621 23.6895 -8.37564 23.2688C-7.77506 22.848 -7.07724 22.5959 -6.35169 22.5373L-2.12645 22.1467C-1.56178 22.0984 -1.01275 21.9325 -0.512915 21.6593C-0.0130796 21.3861 0.426969 21.0114 0.780319 20.5581C1.13367 20.1048 1.39288 19.5825 1.54203 19.023C1.69118 18.4636 1.72714 17.8789 1.64773 17.3047L1.08572 12.995C0.979732 12.2583 1.06438 11.506 1.33115 10.8131C1.59792 10.1202 2.03749 9.51103 2.60609 9.04625C3.17469 8.58146 3.85249 8.27727 4.57177 8.16413C5.29105 8.051 6.02673 8.13284 6.70548 8.40143L10.6948 9.92074C11.2234 10.1267 11.7875 10.2204 12.3527 10.1958C12.9179 10.1712 13.4723 10.0289 13.982 9.77773C14.4917 9.52657 14.946 9.17178 15.3172 8.73493C15.6884 8.29809 15.9686 7.78836 16.1409 7.23695L17.4662 3.10493C17.6838 2.39504 18.0792 1.75578 18.6132 1.25091C19.1472 0.746048 19.8012 0.393062 20.51 0.227182C21.2187 0.0613033 21.9574 0.0884096 22.6528 0.305531C23.3482 0.522652 23.9758 0.922301 24.4733 1.46481L27.415 4.60291C27.8041 5.02405 28.2731 5.35959 28.7933 5.58886C29.3134 5.81813 29.8737 5.9364 30.44 5.9364C31.0063 5.9364 31.5666 5.81813 32.0867 5.58886C32.6068 5.35959 33.0759 5.02405 33.465 4.60291L36.4066 1.46481C36.9042 0.922301 37.5318 0.522652 38.2272 0.305531C38.9225 0.0884096 39.6613 0.0613033 40.37 0.227182C41.0787 0.393062 41.7327 0.746048 42.2668 1.25091C42.8008 1.75578 43.1962 2.39504 43.4138 3.10493L44.7391 7.23695C44.9113 7.78836 45.1916 8.29809 45.5628 8.73493C45.934 9.17178 46.3883 9.52657 46.898 9.77773C47.4077 10.0289 47.9621 10.1712 48.5273 10.1958C49.0925 10.2204 49.6565 10.1267 50.1852 9.92074L54.1745 8.40143C54.8532 8.13284 55.5889 8.051 56.3082 8.16413C57.0275 8.27727 57.7053 8.58146 58.2739 9.04625C58.8425 9.51103 59.2821 10.1202 59.5488 10.8131C59.8156 11.506 59.9002 12.2583 59.7943 12.995L59.2323 17.3047C59.1528 17.8789 59.1888 18.4636 59.3379 19.023C59.4871 19.5825 59.7463 20.1048 60.0997 20.5581C60.453 21.0114 60.8931 21.3861 61.3929 21.6593C61.8927 21.9325 62.4417 22.0984 63.0064 22.1467L67.2317 22.5444C67.9572 22.603 68.655 22.8552 69.2556 23.2759C69.8562 23.6966 70.3385 24.2712 70.6544 24.9422C70.9703 25.6131 71.1087 26.3572 71.056 27.1C71.0032 27.8429 70.7611 28.5586 70.3537 29.1758L68.0225 32.8037C67.708 33.2855 67.493 33.8281 67.3904 34.3979C67.2878 34.9677 67.2998 35.5529 67.4258 36.1178C67.5518 36.6826 67.7891 37.2153 68.1231 37.6832C68.4572 38.151 68.881 38.5442 69.3686 38.8386L73.0179 41.0823C73.6455 41.4577 74.166 41.9947 74.5278 42.6399C74.8896 43.2852 75.08 44.0161 75.08 44.76C75.08 45.5039 74.8896 46.2349 74.5278 46.8801C74.166 47.5253 73.6455 48.0623 73.0179 48.4377Z" stroke="#3B0F46" stroke-width="4.032" mask="url(#path-1-inside-1_15_120)"/>
</g>
<path d="M52.616 44.688C52.616 57.2374 42.6964 67.368 30.512 67.368C18.3275 67.368 8.40796 57.2374 8.40796 44.688C8.40796 32.1387 18.3275 22.008 30.512 22.008C42.6964 22.008 52.616 32.1387 52.616 44.688Z" fill="#8D83FF" stroke="#3B0F46" stroke-width="2.016"/>
<defs>
<filter id="filter0_d_15_120" x="-14.2" y="0.12001" width="92.448" height="95.76" filterUnits="userSpaceOnUse" color-interpolation-filters="sRGB">
<feFlood flood-opacity="0" result="BackgroundImageFix"/>
<feColorMatrix in="SourceAlpha" type="matrix" values="0 0 0 0 0 0 0 0 0 0 0 0 0 0 0 0 0 0 127 0" result="hardAlpha"/>
<feOffset dx="3.168" dy="6.48"/>
<feComposite in2="hardAlpha" operator="out"/>
<feColorMatrix type="matrix" values="0 0 0 0 0.231373 0 0 0 0 0.0588235 0 0 0 0 0.27451 0 0 0 1 0"/>
<feBlend mode="normal" in2="BackgroundImageFix" result="effect1_dropShadow_15_120"/>
<feBlend mode="normal" in="SourceGraphic" in2="effect1_dropShadow_15_120" result="shape"/>
</filter>
</defs>
</svg>
