<svg width="73" height="73" viewBox="0 0 73 73" fill="none" xmlns="http://www.w3.org/2000/svg">
<path d="M70.4546 37.4177C59.9603 40.0492 52.8646 42.9992 47.7575 48.113C42.6508 53.2263 39.7083 60.327 37.0759 70.8152C37.0373 70.959 36.9526 71.0864 36.8344 71.1776C36.7151 71.2698 36.5683 71.32 36.4171 71.32C36.2659 71.32 36.1192 71.2698 35.9998 71.1776C35.8817 71.0864 35.7969 70.959 35.7584 70.8152C33.1256 60.3258 30.1743 53.2252 25.0587 48.1121C19.9432 42.9991 12.8396 40.0492 2.3456 37.4178C2.20118 37.3792 2.0735 37.2942 1.98218 37.1762C1.89001 37.057 1.84002 36.9106 1.84002 36.76C1.84002 36.6094 1.89001 36.463 1.98218 36.3438C2.0735 36.2257 2.20118 36.1408 2.3456 36.1022C12.8396 33.4708 19.9432 30.5209 25.0587 25.4079C30.1743 20.2948 33.1256 13.1942 35.7584 2.70485C35.7969 2.56106 35.8817 2.43367 35.9998 2.34238C36.1193 2.2501 36.266 2.19998 36.4171 2.19998C36.5682 2.19998 36.715 2.2501 36.8344 2.34238C36.9526 2.43367 37.0373 2.56106 37.0759 2.70485C39.7083 13.193 42.6508 20.2937 47.7575 25.407C52.8646 30.5208 59.9603 33.4708 70.4546 36.1023C70.599 36.1409 70.7266 36.2258 70.8179 36.3438C70.91 36.463 70.96 36.6094 70.96 36.76C70.96 36.9106 70.91 37.057 70.8179 37.1762C70.7266 37.2941 70.599 37.3791 70.4546 37.4177Z" fill="#FED33D" stroke="#26103D" stroke-width="2.88"/>
</svg>
