<svg width="62" height="62" viewBox="0 0 62 62" fill="none" xmlns="http://www.w3.org/2000/svg">
<path d="M46.4207 6.03709C46.1018 6.25867 45.688 6.63922 45.1922 7.1631C44.1812 8.23135 42.9572 9.75647 41.7007 11.33L41.5554 11.512C40.3577 13.0122 39.1394 14.5382 38.0993 15.669C37.5603 16.255 37.0438 16.7632 36.5838 17.1108C36.3546 17.284 36.1124 17.4383 35.8669 17.5375C35.6293 17.6335 35.305 17.7114 34.9648 17.6075C34.6245 17.5037 34.3989 17.2578 34.2555 17.0455C34.1073 16.8261 33.9926 16.5627 33.8994 16.2911C33.7121 15.7458 33.5678 15.0357 33.4483 14.2486C33.2176 12.7294 33.0601 10.7828 32.9053 8.86909L32.8866 8.63772C32.724 6.63054 32.5613 4.68168 32.3199 3.23073C32.2016 2.51919 32.0711 1.97234 31.9305 1.61035C31.7675 1.96183 31.6017 2.49673 31.4361 3.1951C31.0972 4.62517 30.8004 6.55694 30.4978 8.54725L30.4756 8.69327C30.1831 10.6177 29.8844 12.5829 29.5394 14.1051C29.3632 14.8824 29.167 15.5814 28.9389 16.1134C28.8252 16.3785 28.6905 16.6335 28.5252 16.8423C28.3647 17.045 28.1216 17.2717 27.7766 17.3515C27.4285 17.4322 27.1102 17.3286 26.8833 17.2163C26.6477 17.0996 26.419 16.9284 26.2045 16.7398C25.7738 16.3609 25.2968 15.8181 24.802 15.1962C23.866 14.0199 22.7831 12.4531 21.713 10.905C21.647 10.8096 21.5812 10.7143 21.5154 10.6192C20.3703 8.96328 19.2521 7.35889 18.3132 6.2265C17.8402 5.656 17.443 5.24301 17.1346 5.00476C17.1295 5.00079 17.1244 4.9969 17.1194 4.99309C17.1197 4.99936 17.1201 5.00573 17.1206 5.0122C17.1458 5.40102 17.2663 5.96112 17.475 6.67215C17.8893 8.08349 18.5948 9.90726 19.328 11.7821C19.3702 11.89 19.4124 11.998 19.4547 12.1061C20.1404 13.8585 20.8344 15.632 21.2868 17.0654C21.526 17.8234 21.7096 18.5223 21.7831 19.0913C21.8198 19.3746 21.834 19.6599 21.7991 19.9205C21.7655 20.1715 21.6736 20.4936 21.4121 20.7373L46.4207 6.03709ZM46.4207 6.03709C46.3594 6.41965 46.198 6.95593 45.945 7.6276C45.4269 9.00293 44.5934 10.7708 43.7321 12.5904L43.6689 12.7238C42.836 14.4831 41.9854 16.2798 41.4209 17.735C41.1326 18.478 40.9046 19.1673 40.7965 19.7359C40.7426 20.0193 40.7118 20.3061 40.7322 20.5716C40.752 20.8291 40.8269 21.1527 41.0678 21.4116C41.068 21.4118 41.0682 21.412 41.0684 21.4122L41.5951 20.9212C42.2304 21.6043 45.8178 20.2006 49.4465 18.7808C53.2847 17.2789 57.169 15.7591 57.6544 16.6717C58.1399 17.5843 54.7088 19.956 51.3185 22.2996C48.1131 24.5153 44.9442 26.7058 45.1557 27.6144L44.4542 27.7767C44.4543 27.777 44.4543 27.7773 44.4544 27.7776C44.5344 28.1221 44.7609 28.365 44.9634 28.5253C45.1722 28.6906 45.4272 28.8253 45.6923 28.939C46.2243 29.1671 46.9233 29.3633 47.7006 29.5395C49.2228 29.8845 51.188 30.1832 53.1124 30.4757L53.2585 30.4979C55.2488 30.8005 57.1805 31.0973 58.6106 31.4362C59.309 31.6018 59.8439 31.7676 60.1953 31.9306C59.8334 32.0712 59.2865 32.2017 58.575 32.3201C57.124 32.5614 55.1752 32.7241 53.168 32.8867L52.9363 32.9054C51.0227 33.0602 49.0762 33.2177 47.5571 33.4484C46.77 33.5679 46.0599 33.7123 45.5146 33.8995C45.2429 33.9927 44.9796 34.1074 44.7602 34.2556C44.5479 34.399 44.302 34.6246 44.1981 34.9649C44.0943 35.3051 44.1722 35.6295 44.2682 35.867C44.3674 36.1125 44.5217 36.3547 44.6949 36.5839C45.0425 37.0439 45.5507 37.5604 46.1367 38.0994C47.2675 39.1396 48.7935 40.3578 50.2937 41.5555L50.4756 41.7008C52.0492 42.9573 53.5743 44.1813 54.6426 45.1923C55.1665 45.6881 55.547 46.1019 55.7686 46.4208C55.386 46.3595 54.8497 46.1981 54.1781 45.9451C52.8027 45.427 51.0349 44.5935 49.2153 43.7322L49.0819 43.669C47.3226 42.8361 45.5259 41.9855 44.0707 41.421C43.3277 41.1327 42.6384 40.9047 42.0697 40.7966C41.7863 40.7427 41.4996 40.7119 41.2341 40.7323C40.9764 40.7521 40.6527 40.827 40.3937 41.0683L46.4207 6.03709ZM29.8751 60.1955C30.0381 59.844 30.2039 59.3091 30.3694 58.6107C30.7084 57.1806 31.0052 55.2489 31.3078 53.2586L31.33 53.1127C31.6225 51.1882 31.9212 49.2229 32.2662 47.7007C32.4424 46.9234 32.6385 46.2244 32.8667 45.6924C32.9804 45.4273 33.1151 45.1723 33.2804 44.9635C33.4407 44.761 33.6836 44.5345 34.0281 44.4545C34.0284 44.4544 34.0287 44.4544 34.029 44.4543L29.8751 60.1955ZM29.8751 60.1955C29.7345 59.8335 29.604 59.2866 29.4856 58.5751C29.2443 57.1241 29.0816 55.1753 28.919 53.1681L28.9003 52.9366C28.7455 51.023 28.588 49.0764 28.3573 47.5572C28.2378 46.7701 28.0934 46.06 27.9062 45.5147C27.813 45.2431 27.6983 44.9797 27.5501 44.7603C27.4067 44.548 27.1811 44.3021 26.8408 44.1983C26.5006 44.0944 26.1762 44.1723 25.9387 44.2683C25.6932 44.3675 25.451 44.5218 25.2218 44.695C24.7618 45.0427 24.2453 45.5508 23.7063 46.1368C22.6661 47.2676 21.4479 48.7936 20.2502 50.2938L20.1049 50.4758C18.8484 52.0493 17.6244 53.5745 16.6134 54.6427C16.1176 55.1666 15.7038 55.5471 15.3849 55.7687C15.4462 55.3862 15.6076 54.8499 15.8606 54.1782C16.3787 52.8029 17.2121 51.035 18.0735 49.2154L18.1367 49.0819C18.9696 47.3226 19.8201 45.526 20.3847 44.0709C20.673 43.3278 20.901 42.6385 21.0091 42.0699C21.063 41.7865 21.0938 41.4997 21.0734 41.2342C21.0536 40.9765 20.9787 40.6528 20.7374 40.3938C20.4936 40.1322 20.1714 40.0403 19.9204 40.0066C19.6598 39.9718 19.3745 39.9859 19.0912 40.0226C18.5222 40.0961 17.8233 40.2797 17.0653 40.5189C15.6318 40.9713 13.8584 41.6653 12.106 42.351C11.9979 42.3933 11.8899 42.4355 11.782 42.4777C9.90715 43.2109 8.08338 43.9164 6.67204 44.3307C5.96102 44.5394 5.40092 44.6599 5.01209 44.6851C5.00562 44.6856 4.99925 44.686 4.99298 44.6863C4.9968 44.6813 5.00069 44.6762 5.00466 44.6711C5.2429 44.3627 5.65589 43.9655 6.22639 43.4925C7.35878 42.5536 8.96317 41.4354 10.6191 40.2903C10.7142 40.2245 10.8096 40.1586 10.905 40.0926C12.4531 39.0226 14.0198 37.9396 15.196 37.0037C15.818 36.5089 16.3608 36.0319 16.7396 35.6012C16.9283 35.3867 17.0995 35.158 17.2161 34.9224C17.3284 34.6955 17.4321 34.3772 17.3514 34.0291C17.2715 33.6841 17.0449 33.441 16.8422 33.2805C16.6334 33.1152 16.3784 32.9805 16.1133 32.8668C15.5813 32.6387 14.8823 32.4425 14.105 32.2663C12.5828 31.9213 10.6175 31.6226 8.69309 31.3301L8.54712 31.3079C6.55681 31.0053 4.62505 30.7085 3.19498 30.3696C2.49661 30.204 1.9617 30.0382 1.61023 29.8752C1.97221 29.7346 2.51907 29.6041 3.23061 29.4858C4.68156 29.2444 6.63043 29.0817 8.63761 28.9191C8.71466 28.9129 8.7918 28.9066 8.86899 28.9004C10.7827 28.7456 12.7293 28.5881 14.2485 28.3574C15.0356 28.2379 15.7457 28.0935 16.291 27.9063C16.5626 27.8131 16.826 27.6984 17.0454 27.5502C17.2577 27.4068 17.5036 27.1812 17.6074 26.8409C17.7113 26.5007 17.6333 26.1763 17.5374 25.9388C17.4382 25.6933 17.2839 25.4511 17.1107 25.2219C16.763 24.7619 16.2549 24.2454 15.6689 23.7064C14.5381 22.6662 13.0121 21.4479 11.5118 20.2502C11.4512 20.2018 11.3905 20.1534 11.3299 20.105C9.75637 18.8485 8.23125 17.6245 7.163 16.6135C6.63912 16.1177 6.25857 15.7039 6.03699 15.385C6.41955 15.4463 6.95584 15.6077 7.6275 15.8607C9.00283 16.3788 10.7707 17.2123 12.5903 18.0736L12.7237 18.1368C14.483 18.9697 16.2797 19.8203 17.7349 20.3848C18.4779 20.6731 19.1672 20.9011 19.7358 21.0092C20.0192 21.0631 20.306 21.0939 20.5715 21.0735C20.8292 21.0537 21.1529 20.9788 21.4119 20.7375L29.8751 60.1955ZM40.0065 41.8853C40.0401 41.6343 40.132 41.3122 40.3935 41.0685L40.0065 41.8853ZM40.0065 41.8853C39.9716 42.1459 39.9858 42.4312 40.0224 42.7145M40.0065 41.8853L40.0224 42.7145M40.0224 42.7145C40.096 43.2835 40.2796 43.9824 40.5188 44.7404M40.0224 42.7145L40.5188 44.7404M40.5188 44.7404C40.9712 46.1738 41.6652 47.9473 42.3509 49.6997M40.5188 44.7404L42.3509 49.6997M42.3509 49.6997C42.3932 49.8078 42.4354 49.9158 42.4776 50.0237M42.3509 49.6997L42.4776 50.0237M42.4776 50.0237C43.2108 51.8985 43.9163 53.7223 44.3306 55.1337M42.4776 50.0237L44.3306 55.1337M44.3306 55.1337C44.5393 55.8447 44.6598 56.4048 44.685 56.7936M44.3306 55.1337L44.685 56.7936M44.685 56.7936C44.6854 56.8001 44.6858 56.8064 44.6862 56.8127L44.685 56.7936Z" fill="#FFADE3" stroke="#26103D" stroke-width="1.44"/>
</svg>
