<svg width="276" height="205" viewBox="0 0 276 205" fill="none" xmlns="http://www.w3.org/2000/svg">
<path d="M263.711 86.8335C264.809 87.0821 265.838 87.3219 266.786 87.5518C265.813 87.4793 264.761 87.3918 263.64 87.2911C257.26 86.7179 248.776 85.7311 240.259 84.7397L240.165 84.7288C231.692 83.7426 223.193 82.7534 216.766 82.1733C213.546 81.8826 210.812 81.6914 208.851 81.6577C207.879 81.6411 207.041 81.6616 206.411 81.7418C206.105 81.7807 205.767 81.8429 205.465 81.9607C205.262 82.0397 204.563 82.3342 204.371 83.1351C204.18 83.936 204.67 84.5149 204.815 84.6771C205.031 84.919 205.304 85.1275 205.559 85.3006C206.085 85.6573 206.823 86.0549 207.697 86.4797C209.461 87.3372 211.985 88.4039 214.988 89.6022C220.979 91.9927 229.002 94.9557 237.001 97.91L237.097 97.9453C245.14 100.916 253.151 103.875 259.1 106.252C260.136 106.666 261.104 107.06 261.997 107.432C261.057 107.209 260.041 106.96 258.961 106.686C252.752 105.115 244.53 102.804 236.276 100.482L236.199 100.461C227.984 98.1505 219.742 95.8329 213.483 94.2467C210.349 93.4523 207.679 92.833 205.748 92.491C204.791 92.3216 203.96 92.21 203.325 92.1901C203.016 92.1804 202.672 92.1888 202.355 92.2578C202.142 92.3042 201.407 92.4854 201.091 93.2449C200.776 94.0049 201.167 94.6535 201.285 94.8375C201.461 95.1108 201.698 95.36 201.922 95.5713C202.385 96.0067 203.051 96.5158 203.847 97.073C205.454 98.1979 207.779 99.649 210.556 101.305C216.095 104.609 223.549 108.797 230.982 112.974L231.075 113.026C238.55 117.226 245.995 121.41 251.495 124.694C252.466 125.274 253.373 125.823 254.205 126.338C253.3 125.965 252.323 125.553 251.284 125.107C245.397 122.579 237.641 119.003 229.854 115.413L229.747 115.364C222.007 111.795 214.245 108.215 208.321 105.667C205.35 104.39 202.81 103.358 200.956 102.715C200.037 102.397 199.234 102.156 198.609 102.036C198.306 101.978 197.965 101.932 197.641 101.95C197.424 101.962 196.671 102.024 196.238 102.722C195.804 103.423 196.088 104.127 196.176 104.328C196.306 104.626 196.501 104.909 196.689 105.153C197.078 105.656 197.656 106.263 198.355 106.937C199.765 108.3 201.833 110.097 204.316 112.168C209.267 116.297 215.971 121.599 222.656 126.887L222.746 126.958C229.471 132.278 236.17 137.578 241.088 141.684C241.966 142.417 242.784 143.109 243.533 143.754C242.689 143.241 241.78 142.676 240.812 142.066C235.393 138.649 228.291 133.906 221.16 129.143L221.105 129.106C214.003 124.363 206.878 119.604 201.414 116.156C198.678 114.43 196.33 113.015 194.598 112.092C193.74 111.635 192.984 111.272 192.385 111.056C192.094 110.951 191.764 110.853 191.441 110.821C191.221 110.799 190.47 110.745 189.936 111.366C189.399 111.989 189.568 112.727 189.623 112.941C189.705 113.256 189.853 113.567 190.002 113.838C190.307 114.396 190.783 115.086 191.368 115.862C192.548 117.428 194.311 119.526 196.441 121.959C200.692 126.814 206.495 133.102 212.281 139.372L212.343 139.44C218.158 145.742 223.95 152.02 228.169 156.842C228.93 157.712 229.637 158.531 230.282 159.292C229.521 158.648 228.702 157.941 227.832 157.18C223.011 152.962 216.734 147.17 210.432 141.355L210.365 141.294C204.095 135.509 197.806 129.705 192.95 125.454C190.518 123.324 188.42 121.56 186.853 120.38C186.077 119.795 185.387 119.319 184.829 119.013C184.558 118.864 184.247 118.716 183.932 118.634C183.718 118.578 182.982 118.41 182.358 118.944C181.735 119.477 181.788 120.23 181.81 120.449C181.842 120.773 181.94 121.103 182.045 121.394C182.26 121.993 182.623 122.749 183.08 123.606C184.003 125.338 185.419 127.685 187.145 130.42C190.585 135.871 195.332 142.976 200.065 150.062L200.133 150.163C204.896 157.293 209.64 164.395 213.057 169.815C213.679 170.802 214.254 171.729 214.776 172.587C214.122 171.828 213.419 170.998 212.673 170.105C208.569 165.187 203.271 158.488 197.952 151.762L197.879 151.669C192.593 144.984 187.292 138.28 183.163 133.328C181.092 130.845 179.295 128.776 177.931 127.365C177.256 126.667 176.648 126.088 176.145 125.699C175.9 125.511 175.616 125.316 175.318 125.185C175.115 125.097 174.414 124.816 173.715 125.246C173.017 125.676 172.952 126.427 172.939 126.648C172.92 126.973 172.966 127.314 173.023 127.617C173.143 128.242 173.383 129.046 173.701 129.965C174.342 131.819 175.374 134.359 176.651 137.329C179.198 143.25 182.777 151.008 186.345 158.745L186.397 158.857C189.989 166.643 193.565 174.398 196.093 180.283C196.545 181.336 196.962 182.325 197.338 183.24C196.818 182.398 196.262 181.481 195.676 180.497C192.403 175.011 188.237 167.587 184.051 160.129L184.021 160.076C179.832 152.611 175.626 145.117 172.306 139.554C170.649 136.777 169.196 134.452 168.067 132.844C167.508 132.048 166.996 131.381 166.556 130.918C166.343 130.693 166.091 130.455 165.815 130.28C165.623 130.158 164.982 129.782 164.232 130.088C163.477 130.396 163.286 131.12 163.235 131.343C163.163 131.663 163.152 132.009 163.161 132.319C163.178 132.957 163.287 133.789 163.455 134.746C163.794 136.679 164.412 139.35 165.206 142.484C166.797 148.762 169.128 157.035 171.451 165.275L171.465 165.326C173.787 173.563 176.098 181.762 177.669 187.958C177.949 189.064 178.205 190.102 178.432 191.061C178.053 190.152 177.65 189.162 177.227 188.102C174.853 182.153 171.899 174.139 168.933 166.094L168.896 165.993C165.948 157.994 162.991 149.972 160.604 143.981C159.407 140.978 158.341 138.454 157.483 136.691C157.058 135.817 156.66 135.079 156.302 134.554C156.128 134.299 155.918 134.025 155.674 133.809C155.507 133.661 154.926 133.177 154.127 133.373C153.335 133.567 153.041 134.258 152.96 134.464C152.841 134.767 152.778 135.106 152.739 135.412C152.658 136.044 152.637 136.883 152.653 137.856C152.686 139.819 152.877 142.553 153.169 145.774C153.75 152.192 154.74 160.674 155.728 169.133L155.744 169.265C156.738 177.781 157.728 186.262 158.301 192.641C158.405 193.802 158.496 194.888 158.569 195.889C158.332 194.913 158.084 193.851 157.827 192.713C156.415 186.465 154.754 178.088 153.087 169.677L153.07 169.589C151.411 161.221 149.747 152.826 148.327 146.53C147.616 143.376 146.958 140.715 146.387 138.838C146.104 137.909 145.826 137.117 145.554 136.541C145.422 136.261 145.257 135.958 145.05 135.706C144.908 135.533 144.412 134.967 143.596 135.032C142.781 135.096 142.38 135.731 142.266 135.924C142.101 136.205 141.986 136.53 141.899 136.827C141.719 137.438 141.567 138.263 141.432 139.226C141.158 141.169 140.92 143.899 140.706 147.126C140.278 153.556 139.934 162.091 139.592 170.602L139.587 170.729C139.241 179.296 138.897 187.828 138.468 194.219C138.388 195.425 138.304 196.549 138.217 197.58C138.13 196.549 138.046 195.424 137.965 194.218C137.534 187.827 137.186 179.294 136.839 170.727L136.826 170.404C136.484 161.957 136.142 153.504 135.72 147.124C135.507 143.898 135.271 141.168 135 139.226C134.866 138.264 134.716 137.44 134.539 136.83C134.454 136.534 134.34 136.21 134.177 135.93C134.069 135.744 133.669 135.096 132.846 135.032C132.023 134.967 131.528 135.545 131.392 135.713C131.187 135.964 131.025 136.266 130.894 136.545C130.625 137.12 130.349 137.911 130.067 138.841C129.497 140.717 128.84 143.378 128.128 146.532C126.71 152.815 125.045 161.188 123.385 169.54L123.358 169.676C121.686 178.086 120.019 186.463 118.605 192.711C118.356 193.809 118.117 194.837 117.887 195.785C117.959 194.813 118.047 193.761 118.147 192.64C118.721 186.259 119.707 177.776 120.699 169.258L120.71 169.165C121.696 160.692 122.685 152.193 123.265 145.766C123.556 142.546 123.747 139.812 123.781 137.851C123.798 136.879 123.777 136.041 123.697 135.411C123.658 135.105 123.596 134.767 123.478 134.465C123.399 134.262 123.104 133.563 122.303 133.371C121.503 133.18 120.924 133.67 120.761 133.815C120.52 134.031 120.311 134.304 120.138 134.559C119.781 135.085 119.384 135.823 118.959 136.697C118.101 138.461 117.035 140.985 115.836 143.988C113.446 149.98 110.483 158.003 107.528 166.002L107.493 166.097C104.523 174.14 101.563 182.152 99.1865 188.1C98.7729 189.136 98.3784 190.105 98.006 190.997C98.229 190.057 98.4789 189.042 98.7522 187.961C100.324 181.752 102.635 173.53 104.956 165.276L104.978 165.198C107.288 156.983 109.606 148.742 111.192 142.483C111.986 139.349 112.605 136.679 112.947 134.748C113.117 133.791 113.228 132.96 113.248 132.325C113.258 132.016 113.25 131.672 113.181 131.355C113.134 131.142 112.953 130.407 112.194 130.091C111.434 129.776 110.785 130.167 110.601 130.285C110.328 130.461 110.078 130.698 109.867 130.922C109.432 131.385 108.923 132.051 108.365 132.847C107.24 134.454 105.789 136.779 104.133 139.556C100.829 145.095 96.641 152.549 92.4647 159.982L92.4124 160.075C88.2123 167.55 84.0283 174.995 80.7442 180.495C80.1645 181.466 79.6151 182.373 79.1003 183.206C79.4728 182.3 79.8848 181.323 80.3312 180.284C82.8594 174.397 86.435 166.641 90.0258 158.854L90.0734 158.75C93.6429 151.009 97.2226 143.246 99.7709 137.321C101.049 134.35 102.081 131.81 102.723 129.956C103.041 129.037 103.282 128.234 103.402 127.609C103.46 127.306 103.506 126.965 103.488 126.641C103.476 126.424 103.414 125.671 102.717 125.238C102.016 124.804 101.311 125.088 101.111 125.176C100.813 125.306 100.529 125.501 100.285 125.689C99.7829 126.078 99.1759 126.656 98.5011 127.355C97.1387 128.765 95.3415 130.833 93.2708 133.316C89.1415 138.267 83.8387 144.971 78.5506 151.656L78.48 151.746C73.1602 158.471 67.8607 165.17 63.7548 170.088C63.0216 170.966 62.3293 171.784 61.684 172.533C62.1978 171.689 62.7629 170.78 63.3726 169.812C66.7891 164.393 71.5324 157.291 76.2953 150.16L76.3339 150.102C81.0765 143.002 85.8349 135.878 89.2823 130.414C91.008 127.678 92.4235 125.33 93.3465 123.598C93.8037 122.74 94.167 121.984 94.3825 121.385C94.4871 121.094 94.5854 120.764 94.6177 120.441C94.6397 120.221 94.6932 119.47 94.0726 118.936C93.4492 118.399 92.7117 118.568 92.4974 118.623C92.1823 118.705 91.8713 118.853 91.6007 119.002C91.0429 119.307 90.3526 119.783 89.5768 120.368C88.0105 121.548 85.9125 123.311 83.4799 125.441C78.6244 129.693 72.3345 135.497 66.0639 141.283L65.9983 141.343C59.696 147.158 53.4183 152.95 48.5965 157.169C47.7264 157.93 46.9071 158.637 46.1463 159.282C46.7907 158.521 47.4976 157.702 48.2586 156.832C52.4769 152.011 58.2682 145.734 64.0831 139.432L64.1444 139.365C69.9299 133.095 75.733 126.806 79.9847 121.951C82.1149 119.518 83.8781 117.42 85.0588 115.853C85.6436 115.077 86.1199 114.387 86.4256 113.829C86.574 113.558 86.7224 113.247 86.8043 112.932C86.8601 112.718 87.0288 111.982 86.4947 111.358C85.9612 110.736 85.2087 110.788 84.9889 110.81C84.6653 110.842 84.3352 110.94 84.0446 111.045C83.4458 111.26 82.6896 111.624 81.8319 112.081C80.1005 113.003 77.7533 114.419 75.0187 116.145C69.5669 119.585 62.4614 124.332 55.3755 129.066L55.2756 129.133C48.1454 133.897 41.043 138.64 35.623 142.057C34.6365 142.679 33.7097 143.254 32.8516 143.776C33.6103 143.122 34.4409 142.419 35.3336 141.673C40.2511 137.569 46.95 132.271 53.6765 126.952L53.7689 126.879C60.4542 121.593 67.1584 116.292 72.1102 112.163C74.5937 110.092 76.6627 108.295 78.0733 106.931C78.7719 106.256 79.3501 105.648 79.7391 105.145C79.9278 104.9 80.1229 104.616 80.253 104.318C80.3414 104.115 80.6227 103.414 80.192 102.715C79.7621 102.017 79.0111 101.952 78.7905 101.939C78.4658 101.92 78.1245 101.966 77.8211 102.023C77.196 102.143 76.3922 102.383 75.4737 102.701C73.6193 103.342 71.0799 104.374 68.1094 105.651C62.1882 108.198 54.4305 111.777 46.6942 115.345L46.5815 115.397C38.7957 118.989 31.0409 122.565 25.1554 125.093C24.0952 125.548 23.0998 125.968 22.179 126.346C23.026 125.822 23.9502 125.261 24.9416 124.669C30.4416 121.386 37.8873 117.204 45.3632 113.006L45.4588 112.952C52.8913 108.778 60.3453 104.592 65.884 101.289C68.6611 99.6332 70.986 98.1819 72.5928 97.0561C73.3886 96.4985 74.055 95.9887 74.5181 95.5521C74.7428 95.3403 74.98 95.0903 75.1552 94.816C75.2745 94.6292 75.6612 93.9823 75.3472 93.225C75.0332 92.4677 74.3022 92.2842 74.0857 92.2367C73.7677 92.1669 73.4233 92.158 73.1146 92.1674C72.4784 92.1867 71.6469 92.298 70.69 92.4672C68.758 92.8088 66.0883 93.4285 62.9542 94.2235C56.7086 95.8078 48.4883 98.1222 40.29 100.43L40.1636 100.466C31.9105 102.79 23.6902 105.103 17.4807 106.674C16.366 106.956 15.3205 107.213 14.3546 107.442C15.2706 107.059 16.2681 106.653 17.3362 106.227C23.2859 103.853 31.2991 100.899 39.3445 97.9334L39.4445 97.8966C47.444 94.9483 55.4667 91.9914 61.4571 89.6042C64.4602 88.4075 66.9843 87.3414 68.7477 86.4834C69.621 86.0585 70.359 85.6601 70.8848 85.3019C71.1398 85.1281 71.4136 84.9182 71.6298 84.6741C71.7778 84.507 72.2611 83.9262 72.0653 83.1276C71.871 82.3348 71.1807 82.0407 70.9743 81.9599C70.6715 81.8412 70.3328 81.7783 70.0261 81.739C69.3942 81.6578 68.555 81.6367 67.5827 81.6531C65.6198 81.6861 62.885 81.8776 59.6641 82.169C53.2456 82.7497 44.7629 83.7404 36.3036 84.7284L36.1736 84.7436C27.6578 85.7381 19.1765 86.7278 12.7976 87.3011C11.6368 87.4054 10.5503 87.4956 9.54924 87.5693C10.5252 87.3321 11.5877 87.0843 12.7253 86.8272C18.9735 85.4153 27.3506 83.7542 35.7614 82.0871L35.8486 82.0699C44.2174 80.4111 52.6121 78.7472 58.9082 77.3271C62.0624 76.6157 64.7232 75.9582 66.6002 75.3866C67.5298 75.1036 68.3217 74.8255 68.8977 74.5538C69.1772 74.4219 69.4805 74.2574 69.7324 74.0502C69.9053 73.908 70.4711 73.4125 70.4067 72.5963C70.3425 71.7811 69.7073 71.38 69.5146 71.2665C69.2337 71.101 68.9087 70.9855 68.612 70.8985C68.0008 70.7193 67.1753 70.5673 66.2129 70.4316C64.2698 70.1576 61.5392 69.92 58.3129 69.7056C51.8825 69.2781 43.3479 68.9344 34.8366 68.5916L34.7096 68.5865C26.1427 68.2415 17.6102 67.8969 11.2193 67.4685C10.0137 67.3876 8.88924 67.3041 7.85883 67.2175C8.8896 67.1304 10.0145 67.0464 11.2206 66.965C17.6118 66.5338 26.1447 66.1861 34.7118 65.8392L35.0348 65.8261C43.4813 65.484 51.9342 65.1417 58.3146 64.72C61.5406 64.5067 64.2703 64.2711 66.2123 64.0003C67.1742 63.8661 67.9985 63.7161 68.6083 63.5395C68.9041 63.4539 69.2281 63.3403 69.5082 63.1775C69.6947 63.069 70.3425 62.6696 70.4068 61.8463C70.4711 61.0231 69.8933 60.5279 69.7259 60.3918C69.4745 60.1875 69.1721 60.0249 68.8931 59.8943C68.3181 59.6251 67.5271 59.3488 66.5976 59.0667C64.7212 58.4974 62.0609 57.8404 58.9069 57.1285C52.6235 55.7103 44.25 54.0454 35.898 52.3848L35.7623 52.3578C27.3522 50.6856 18.9755 49.0192 12.7272 47.6049C11.629 47.3564 10.6007 47.1165 9.65271 46.8867C10.6253 46.9591 11.6772 47.0466 12.7984 47.1473C19.1789 47.7205 27.6625 48.7074 36.1799 49.6987L36.2722 49.7095C44.7457 50.6957 53.245 51.685 59.6723 52.2652C62.8928 52.5559 65.6267 52.747 67.5879 52.7807C68.5593 52.7974 69.3974 52.7768 70.0277 52.6967C70.3336 52.6578 70.6717 52.5955 70.9739 52.4777C71.1766 52.3987 71.8755 52.1043 72.0671 51.3034C72.2588 50.5024 71.7689 49.9235 71.6239 49.7613C71.4077 49.5195 71.1344 49.311 70.8793 49.1378C70.3535 48.7811 69.6155 48.3835 68.7418 47.9587C66.9778 47.1012 64.4536 46.0345 61.4504 44.8363C55.4589 42.4457 47.436 39.4827 39.4368 36.5284L39.3415 36.4932C31.2981 33.5226 23.2869 30.5631 17.3381 28.1865C16.3029 27.7729 15.334 27.3784 14.4411 27.006C15.3819 27.229 16.397 27.4789 17.4771 27.7522C23.6868 29.3235 31.9081 31.6348 40.1621 33.9559L40.2406 33.978C48.4558 36.2882 56.697 38.6056 62.9552 40.1917C66.0895 40.9861 68.7591 41.6055 70.6907 41.9474C71.6475 42.1168 72.4785 42.2284 73.1139 42.2483C73.4222 42.258 73.766 42.2496 74.0832 42.1807C74.2966 42.1343 75.0317 41.9531 75.347 41.1935C75.6625 40.4335 75.2713 39.7849 75.1532 39.6009C74.9779 39.3277 74.7408 39.0785 74.5162 38.8671C74.0531 38.4317 73.387 37.9226 72.5911 37.3654C70.9843 36.2405 68.6596 34.7894 65.8827 33.1331C60.3436 29.8293 52.8893 25.641 45.4566 21.4648L45.3635 21.4125C37.8882 17.2124 30.4431 13.0284 24.9431 9.74435C23.9723 9.16465 23.0657 8.61519 22.2331 8.10046C23.1386 8.47296 24.1156 8.88495 25.1548 9.33131C31.0411 11.8594 38.7975 15.4351 46.5849 19.0259L46.6877 19.0733C54.4289 22.6428 62.1924 26.2226 68.1173 28.7709C71.0885 30.0488 73.6282 31.0809 75.4828 31.7229C76.4014 32.041 77.2048 32.2821 77.8294 32.402C78.1326 32.4602 78.4733 32.5061 78.7971 32.4883C79.0147 32.4763 79.7677 32.4142 80.2001 31.7168C80.6349 31.0155 80.3505 30.3113 80.2627 30.1105C80.1326 29.8127 79.9375 29.5292 79.7489 29.2854C79.3602 28.7829 78.7823 28.1759 78.0839 27.5011C76.6738 26.1387 74.6056 24.3415 72.1226 22.2708C67.1713 18.1415 60.4672 12.8385 53.7817 7.5504L53.6926 7.47997C46.9672 2.16016 40.2686 -3.13932 35.3503 -7.24522C34.4721 -7.97841 33.654 -8.67074 32.9051 -9.31604C33.749 -8.80226 34.6588 -8.23715 35.6259 -7.6274C41.0449 -4.21094 48.1474 0.532379 55.2783 5.29523L55.3356 5.33353C62.4363 10.0762 69.5606 14.8347 75.0248 18.2822C77.7601 20.0079 80.108 21.4234 81.8402 22.3464C82.6982 22.8036 83.4546 23.1669 84.0536 23.3824C84.3443 23.487 84.6743 23.5853 84.9977 23.6176C85.2169 23.6396 85.9682 23.693 86.5025 23.0725C87.0393 22.4491 86.8709 21.7115 86.8152 21.4973C86.7334 21.1822 86.585 20.8712 86.4368 20.6005C86.1313 20.0427 85.6551 19.3524 85.0705 18.5767C83.8901 17.0104 82.1271 14.9124 79.9971 12.4798C75.7451 7.62389 69.9408 1.33343 64.1542 -4.93773L64.0952 -5.00175C58.28 -11.304 52.4882 -17.5818 48.2695 -22.4035C47.5083 -23.2736 46.8012 -24.0929 46.1566 -24.8536C46.9172 -24.2092 47.7362 -23.5024 48.606 -22.7414C53.4274 -18.5231 59.7047 -12.7318 66.0066 -6.91695L66.0725 -6.85617C72.3428 -1.07053 78.6323 4.73289 83.488 8.98473C85.9207 11.1149 88.0189 12.8781 89.5855 14.0588C90.3614 14.6436 91.0519 15.1199 91.6098 15.4256C91.8806 15.574 92.1914 15.7224 92.5064 15.8043C92.7203 15.8601 93.4564 16.0288 94.0801 15.4947C94.703 14.9612 94.6503 14.2087 94.6285 13.9889C94.5963 13.6653 94.4981 13.3352 94.3936 13.0446C94.1783 12.4458 93.815 11.6896 93.3579 10.8319C92.4351 9.10046 91.0197 6.75333 89.2938 4.01875C85.8536 -1.43233 81.1074 -8.53667 76.3741 -15.6216L76.3054 -15.7244C71.5419 -22.8546 66.798 -29.957 63.3815 -35.377C62.7597 -36.3634 62.1843 -37.2903 61.6625 -38.1483C62.3168 -37.3896 63.0197 -36.5591 63.765 -35.6664C67.8698 -30.7489 73.1676 -24.05 78.4862 -17.3235L78.5603 -17.2297C83.846 -10.5449 89.1465 -3.84127 93.2752 1.11018C95.3461 3.59373 97.1438 5.66264 98.5073 7.07326C99.1826 7.77193 99.7904 8.35012 100.294 8.73907C100.538 8.92782 100.822 9.12288 101.121 9.25296C101.323 9.34138 102.024 9.62273 102.724 9.19202C103.422 8.76214 103.487 8.01109 103.5 7.79054C103.518 7.46584 103.473 7.12448 103.415 6.82107C103.296 6.19596 103.055 5.39223 102.738 4.47371C102.096 2.61926 101.065 0.0798798 99.787 -2.89062C97.2402 -8.81183 93.6617 -16.5696 90.093 -24.3059L90.0411 -24.4185C86.4496 -32.2044 82.8734 -39.9592 80.3457 -45.8447C79.8904 -46.9049 79.4709 -47.9003 79.0927 -48.8211C79.6167 -47.9742 80.1771 -47.0499 80.7689 -46.0585C84.0524 -40.5585 88.2345 -33.1128 92.4327 -25.6369L92.4848 -25.5441C96.6591 -18.1107 100.846 -10.6555 104.149 -5.11597C105.805 -2.33891 107.257 -0.0140381 108.382 1.59277C108.94 2.38863 109.45 3.05495 109.886 3.51807C110.098 3.74284 110.348 3.97996 110.622 4.15517C110.809 4.27451 111.456 4.66122 112.213 4.34723C112.971 4.03323 113.154 3.30217 113.202 3.08566C113.272 2.76775 113.28 2.4233 113.271 2.11456C113.252 1.47844 113.14 0.646873 112.971 -0.310043C112.63 -2.24202 112.01 -4.91176 111.215 -8.04586C109.631 -14.2909 107.317 -22.5103 105.009 -30.7079L104.972 -30.8364C102.649 -39.0896 100.335 -47.3099 98.764 -53.5194C98.4819 -54.6341 98.2249 -55.6797 97.9967 -56.6456C98.3792 -55.7295 98.7852 -54.7321 99.2114 -53.6639C101.586 -47.7142 104.54 -39.701 107.505 -31.6556L107.542 -31.5546C110.49 -23.5554 113.447 -15.5331 115.834 -9.54293C117.031 -6.53979 118.097 -4.01566 118.955 -2.25233C119.38 -1.37903 119.778 -0.640976 120.137 -0.115242C120.31 0.139839 120.52 0.413605 120.765 0.629845C120.932 0.777802 121.512 1.26112 122.311 1.06533C123.104 0.870964 123.398 0.180679 123.479 -0.0256958C123.597 -0.328529 123.66 -0.667183 123.7 -0.973946C123.781 -1.60577 123.802 -2.44504 123.785 -3.4173C123.752 -5.38016 123.561 -8.11503 123.27 -11.3359C122.689 -17.7538 121.698 -26.2355 120.71 -34.6941L120.695 -34.8263C119.7 -43.3421 118.711 -51.8234 118.137 -58.2023C118.033 -59.3631 117.943 -60.4496 117.869 -61.4506C118.106 -60.4747 118.354 -59.4122 118.611 -58.2746C120.023 -52.0264 121.684 -43.6494 123.351 -35.2385L123.369 -35.1514C125.027 -26.7827 126.691 -18.388 128.111 -12.0919C128.823 -8.93774 129.48 -6.27693 130.052 -4.39993C130.335 -3.47027 130.613 -2.67839 130.885 -2.10244C131.017 -1.8229 131.181 -1.5196 131.388 -1.2677C131.53 -1.09483 132.026 -0.529068 132.842 -0.593384C133.657 -0.657623 134.058 -1.29282 134.172 -1.4855C134.337 -1.7664 134.453 -2.09144 134.54 -2.38813C134.719 -2.99934 134.871 -3.82481 135.007 -4.78722C135.281 -6.73032 135.518 -9.46092 135.733 -12.6872C136.16 -19.1175 136.504 -27.6522 136.847 -36.1635L136.852 -36.2905C137.197 -44.8574 137.541 -53.3898 137.97 -59.7807C138.051 -60.9864 138.134 -62.1109 138.221 -63.1413C138.308 -62.1105 138.392 -60.9856 138.473 -59.7794C138.905 -53.3882 139.252 -44.8553 139.599 -36.2883L139.612 -35.9675C139.954 -27.5203 140.297 -19.0664 140.719 -12.6855C140.932 -9.45953 141.167 -6.72977 141.438 -4.7878C141.572 -3.82589 141.722 -3.00163 141.899 -2.39185C141.985 -2.09599 142.098 -1.77198 142.261 -1.49192C142.37 -1.30537 142.769 -0.6576 143.592 -0.593307C144.415 -0.529022 144.911 -1.10686 145.047 -1.27425C145.251 -1.52561 145.414 -1.82803 145.544 -2.10702C145.813 -2.68201 146.09 -3.473 146.372 -4.40247C146.941 -6.27894 147.598 -8.93916 148.31 -12.0932C149.728 -18.3763 151.393 -26.7493 153.053 -35.1009L153.081 -35.2377C154.753 -43.6478 156.419 -52.0245 157.834 -58.2727C158.082 -59.3708 158.322 -60.3991 158.552 -61.347C158.479 -60.3745 158.392 -59.3226 158.291 -58.2015C157.718 -51.821 156.731 -43.3374 155.74 -34.82L155.729 -34.7243C154.742 -26.2519 153.753 -17.7541 153.173 -11.3277C152.882 -8.10718 152.691 -5.37331 152.658 -3.41211C152.641 -2.44068 152.661 -1.60262 152.742 -0.97226C152.781 -0.666374 152.843 -0.328346 152.961 -0.0261078C153.04 0.176567 153.334 0.875481 154.135 1.06714C154.936 1.2588 155.515 0.768867 155.677 0.623871C155.919 0.407684 156.127 0.134422 156.3 -0.12072C156.657 -0.646515 157.055 -1.38448 157.48 -2.25822C158.337 -4.02218 159.404 -6.54641 160.602 -9.54958C162.993 -15.5414 165.956 -23.5647 168.91 -31.5643L168.945 -31.6586C171.916 -39.7019 174.875 -47.7132 177.252 -53.662C177.666 -54.6973 178.06 -55.6662 178.432 -56.5591C178.209 -55.6183 177.96 -54.6031 177.686 -53.523C176.115 -47.3133 173.804 -39.092 171.482 -30.8379L171.461 -30.7605C169.15 -22.545 166.833 -14.3033 165.247 -8.04486C164.452 -4.9105 163.833 -2.24087 163.491 -0.309288C163.322 0.647469 163.21 1.47849 163.19 2.11386C163.18 2.4222 163.189 2.76598 163.258 3.08318C163.304 3.29664 163.485 4.0317 164.245 4.34701C165.005 4.66251 165.654 4.27126 165.838 4.15322C166.111 3.97788 166.36 3.74084 166.571 3.51616C167.007 3.05314 167.516 2.38699 168.073 1.59113C169.198 -0.0156708 170.649 -2.34037 172.305 -5.11732C175.609 -10.6565 179.798 -18.1109 183.974 -25.5438L184.026 -25.6366C188.226 -33.1118 192.41 -40.557 195.694 -46.057C196.274 -47.0278 196.823 -47.9344 197.338 -48.767C196.966 -47.8615 196.554 -46.8845 196.107 -45.8453C193.579 -39.959 190.003 -32.2025 186.413 -24.4151L186.365 -24.3114C182.795 -16.5705 179.216 -8.80743 176.668 -2.8827C175.39 0.0884552 174.358 2.6282 173.715 4.48276C173.397 5.4014 173.156 6.20483 173.036 6.82943C172.978 7.13261 172.932 7.47326 172.95 7.7971C172.962 8.01472 173.024 8.76768 173.722 9.20008C174.423 9.63487 175.127 9.35047 175.328 9.26273C175.626 9.13257 175.909 8.9375 176.153 8.74891C176.656 8.36019 177.263 7.7823 177.937 7.0839C179.3 5.67381 181.097 3.60555 183.168 1.12263C187.297 -3.82854 192.6 -10.5324 197.887 -17.2176L197.958 -17.3074C203.278 -24.0328 208.578 -30.7314 212.684 -35.6497C213.417 -36.5279 214.109 -37.346 214.754 -38.0948C214.241 -37.251 213.676 -36.3412 213.066 -35.3741C209.649 -29.9551 204.906 -22.8526 200.143 -15.7217L200.106 -15.6657C195.363 -8.56458 190.604 -1.4397 187.156 4.02482C185.43 6.76014 184.015 9.10799 183.092 10.8402C182.635 11.6982 182.271 12.4546 182.056 13.0536C181.951 13.3443 181.853 13.6743 181.821 13.9977C181.799 14.2169 181.745 14.9682 182.366 15.5025C182.989 16.0393 183.727 15.8709 183.941 15.8152C184.256 15.7334 184.567 15.585 184.838 15.4368C185.396 15.1313 186.086 14.6551 186.862 14.0705C188.428 12.8901 190.526 11.1271 192.958 8.99709C197.814 4.74566 204.103 -1.05763 210.374 -6.84335L210.44 -6.90482C216.742 -12.72 223.02 -18.5118 227.842 -22.7305C228.712 -23.4918 229.531 -24.1988 230.292 -24.8434C229.648 -24.0829 228.941 -23.2638 228.18 -22.394C223.962 -17.5727 218.17 -11.2954 212.355 -4.99345L212.295 -4.92757C206.509 1.34267 200.706 7.63219 196.454 12.4879C194.324 14.9205 192.56 17.0187 191.38 18.5854C190.795 19.3613 190.319 20.0518 190.013 20.6097C189.864 20.8804 189.716 21.1913 189.634 21.5062C189.578 21.7202 189.41 22.4563 189.944 23.0799C190.477 23.7029 191.23 23.6502 191.449 23.6284C191.773 23.5962 192.103 23.498 192.394 23.3935C192.993 23.1781 193.749 22.8149 194.606 22.3578C196.338 21.435 198.685 20.0196 201.42 18.2937C206.871 14.8534 213.975 10.1072 221.06 5.37386L221.163 5.30537C228.293 0.541885 235.395 -4.20201 240.815 -7.61856C241.802 -8.24038 242.729 -8.81575 243.587 -9.33759C242.828 -8.68328 241.998 -7.98028 241.105 -7.23504C236.187 -3.13018 229.488 2.16764 222.762 7.48619L222.667 7.56101C215.983 12.8464 209.279 18.1466 204.328 22.2752C201.845 24.3461 199.776 26.1438 198.365 27.5073C197.667 28.1826 197.088 28.7904 196.699 29.2939C196.511 29.5382 196.316 29.8222 196.185 30.1205C196.097 30.3233 195.816 31.0242 196.246 31.7235C196.676 32.4215 197.427 32.4869 197.648 32.4996C197.973 32.5184 198.314 32.4729 198.617 32.415C199.242 32.2958 200.046 32.0551 200.965 31.7375C202.819 31.0963 205.359 30.0647 208.329 28.787C214.25 26.2401 222.008 22.6616 229.744 19.0929L229.857 19.0411C237.643 15.4496 245.398 11.8734 251.283 9.34574C252.336 8.89366 253.324 8.4769 254.24 8.10077C253.398 8.62074 252.481 9.17632 251.497 9.76289C246.01 13.0353 238.587 17.2014 231.129 21.387L231.076 21.4172C223.611 25.6063 216.117 29.8128 210.554 33.1321C207.777 34.7892 205.452 36.2426 203.844 37.3716C203.048 37.9308 202.381 38.4427 201.918 38.8821C201.693 39.0954 201.455 39.3471 201.28 39.6233C201.158 39.8159 200.782 40.4562 201.088 41.2062C201.396 41.9616 202.12 42.1524 202.343 42.2032C202.663 42.2758 203.009 42.2862 203.319 42.2779C203.957 42.2609 204.789 42.1511 205.746 41.9833C207.679 41.6444 210.35 41.0263 213.484 40.2323C219.762 38.6416 228.035 36.3102 236.275 33.9876L236.326 33.9732C244.562 31.6518 252.762 29.3408 258.958 27.7696C260.064 27.4892 261.102 27.2335 262.061 27.0062C261.151 27.3859 260.162 27.7887 259.102 28.2114C253.153 30.5856 245.139 33.5398 237.094 36.505L236.994 36.5417C228.995 39.4901 220.972 42.447 214.981 44.8342C211.978 46.031 209.454 47.097 207.691 47.955C206.817 48.3799 206.079 48.7783 205.554 49.1365C205.299 49.3103 205.025 49.5202 204.809 49.7644C204.661 49.9314 204.177 50.5123 204.373 51.3108C204.567 52.1036 205.258 52.3977 205.464 52.4786C205.767 52.5972 206.106 52.6601 206.412 52.6995C207.044 52.7806 207.883 52.8017 208.856 52.7853C210.819 52.7523 213.553 52.5609 216.774 52.2694C223.193 51.6887 231.676 50.698 240.135 49.71L240.265 49.6948C248.781 48.7003 257.262 47.7106 263.641 47.1373C264.802 47.033 265.888 46.9429 266.889 46.8691C265.913 47.1063 264.851 47.3541 263.713 47.6112C257.465 49.0232 249.088 50.6842 240.677 52.3513L240.589 52.3687C232.221 54.0274 223.826 55.6912 217.53 57.1113C214.376 57.8227 211.715 58.4803 209.838 59.0518C208.909 59.3348 208.117 59.6129 207.541 59.8846C207.261 60.0165 206.958 60.181 206.706 60.3882C206.533 60.5304 205.967 61.026 206.032 61.8421C206.096 62.6574 206.731 63.0584 206.924 63.1719C207.205 63.3374 207.53 63.4529 207.826 63.5399C208.438 63.7191 209.263 63.8712 210.226 64.0068C212.169 64.2808 214.899 64.5184 218.126 64.7328C224.556 65.1603 233.091 65.504 241.602 65.8468L241.729 65.8519C250.296 66.197 258.828 66.5415 265.219 66.97C266.425 67.0508 267.549 67.1343 268.58 67.2209C267.549 67.308 266.424 67.3921 265.218 67.4734C258.827 67.9046 250.294 68.2523 241.727 68.5993L241.406 68.6123C232.959 68.9543 224.505 69.2967 218.124 69.7184C214.898 69.9317 212.168 70.1673 210.226 70.4381C209.264 70.5723 208.44 70.7224 207.83 70.8989C207.534 70.9845 207.21 71.0981 206.93 71.261C206.744 71.3694 206.096 71.7689 206.032 72.5921C205.967 73.4153 206.545 73.9105 206.713 74.0466C206.964 74.2509 207.266 74.4135 207.545 74.5441C208.12 74.8133 208.911 75.0897 209.841 75.3717C211.717 75.941 214.377 76.598 217.531 77.3099C223.815 78.7281 232.188 80.3929 240.54 82.0535L240.676 82.0806C249.086 83.7528 257.463 85.4193 263.711 86.8335Z" fill="#FED33D" stroke="#26103D" stroke-width="2.7648"/>
</svg>
